<svg width="984" height="136" viewBox="0 0 984 136" fill="none" xmlns="http://www.w3.org/2000/svg">
<g opacity="0.2">
<mask id="mask0_8612_40346" style="mask-type:alpha" maskUnits="userSpaceOnUse" x="0" y="0" width="983" height="136">
<rect width="983" height="136" fill="#B90025"/>
</mask>
<g mask="url(#mask0_8612_40346)">
<path d="M12.6301 3.6292C12.6301 2.67976 11.859 1.9101 10.9078 1.9101C9.95662 1.9101 9.18553 2.67976 9.18553 3.6292V7.0674C9.18553 8.01683 9.95662 8.7865 10.9078 8.7865C11.859 8.7865 12.6301 8.01683 12.6301 7.0674V3.6292Z" fill="white"/>
<path d="M12.6301 14.7078C12.6301 13.7584 11.859 12.9887 10.9078 12.9887C9.95662 12.9887 9.18553 13.7584 9.18553 14.7078V18.146C9.18553 19.0955 9.95662 19.8651 10.9078 19.8651C11.859 19.8651 12.6301 19.0955 12.6301 18.146V14.7078Z" fill="white"/>
<path d="M13.0128 10.8876C13.0128 9.93819 13.7839 9.16852 14.7351 9.16852H18.1797C19.1309 9.16852 19.902 9.93819 19.902 10.8876C19.902 11.8371 19.1309 12.6067 18.1797 12.6067H14.7351C13.7839 12.6067 13.0128 11.8371 13.0128 10.8876Z" fill="white"/>
<path d="M3.63594 9.16852C2.68474 9.16852 1.91365 9.93819 1.91365 10.8876C1.91365 11.8371 2.68474 12.6067 3.63594 12.6067H7.08051C8.0317 12.6067 8.8028 11.8371 8.8028 10.8876C8.8028 9.93819 8.0317 9.16852 7.08051 9.16852H3.63594Z" fill="white"/>
<path d="M280.541 80.0337C280.541 79.0842 279.77 78.3146 278.819 78.3146C277.868 78.3146 277.097 79.0842 277.097 80.0337V83.4719C277.097 84.4213 277.868 85.191 278.819 85.191C279.77 85.191 280.541 84.4213 280.541 83.4719V80.0337Z" fill="white"/>
<path d="M280.541 91.1123C280.541 90.1629 279.77 89.3932 278.819 89.3932C277.868 89.3932 277.097 90.1629 277.097 91.1123V94.5505C277.097 95.5 277.868 96.2696 278.819 96.2696C279.77 96.2696 280.541 95.5 280.541 94.5505V91.1123Z" fill="white"/>
<path d="M280.924 87.2921C280.924 86.3427 281.695 85.573 282.646 85.573H286.091C287.042 85.573 287.813 86.3427 287.813 87.2921C287.813 88.2415 287.042 89.0112 286.091 89.0112H282.646C281.695 89.0112 280.924 88.2415 280.924 87.2921Z" fill="white"/>
<path d="M271.547 85.573C270.596 85.573 269.825 86.3427 269.825 87.2921C269.825 88.2415 270.596 89.0112 271.547 89.0112H274.992C275.943 89.0112 276.714 88.2415 276.714 87.2921C276.714 86.3427 275.943 85.573 274.992 85.573H271.547Z" fill="white"/>
<path d="M39.0385 87.1011C39.0385 86.2571 39.7239 85.573 40.5694 85.573H42.1003C42.9459 85.573 43.6313 86.2571 43.6313 87.1011C43.6313 87.945 42.9459 88.6292 42.1003 88.6292H40.5694C39.7239 88.6292 39.0385 87.945 39.0385 87.1011Z" fill="white"/>
<path d="M44.3967 87.1011C44.3967 86.2571 45.0821 85.573 45.9277 85.573H47.4586C48.3041 85.573 48.9895 86.2571 48.9895 87.1011C48.9895 87.945 48.3041 88.6292 47.4586 88.6292H45.9277C45.0821 88.6292 44.3967 87.945 44.3967 87.1011Z" fill="white"/>
<path d="M51.2859 85.573C50.4404 85.573 49.755 86.2571 49.755 87.1011C49.755 87.945 50.4404 88.6292 51.2859 88.6292H57.0268C57.8723 88.6292 58.5578 87.945 58.5578 87.1011C58.5578 86.2571 57.8723 85.573 57.0268 85.573H51.2859Z" fill="white"/>
<path fill-rule="evenodd" clip-rule="evenodd" d="M46.0175 42.1145C46.6008 41.5035 47.5698 41.4801 48.1819 42.0623L57.0604 50.5066C59.0611 52.4095 57.7118 55.7753 54.9482 55.7753H43.2547C40.5495 55.7753 39.1734 52.5301 41.0566 50.5916L44.6623 46.8801C45.2509 46.2742 46.2201 46.2594 46.8271 46.8469C47.4341 47.4344 47.449 48.4018 46.8604 49.0076L43.2547 52.7192L54.9482 52.7192L46.0698 44.2749C45.4576 43.6927 45.4342 42.7254 46.0175 42.1145Z" fill="white"/>
<path d="M9.88532 124.605C9.28746 125.202 9.28746 126.169 9.88532 126.766C10.4832 127.363 11.4525 127.363 12.0504 126.766L12.5916 126.226C13.1895 125.629 13.1895 124.661 12.5916 124.065C11.9938 123.468 11.0244 123.468 10.4266 124.065L9.88532 124.605Z" fill="white"/>
<path d="M201.251 9.99809C200.653 10.5948 200.653 11.5624 201.251 12.1591C201.848 12.7559 202.818 12.7559 203.416 12.1591L203.957 11.6189C204.555 11.0221 204.555 10.0546 203.957 9.45783C203.359 8.86107 202.39 8.86107 201.792 9.45783L201.251 9.99809Z" fill="white"/>
<path d="M307.715 48.8989C307.715 48.0549 308.401 47.3708 309.246 47.3708H310.777C311.623 47.3708 312.308 48.0549 312.308 48.8989C312.308 49.7428 311.623 50.427 310.777 50.427H309.246C308.401 50.427 307.715 49.7428 307.715 48.8989Z" fill="white"/>
<path d="M313.074 48.8989C313.074 48.0549 313.759 47.3708 314.604 47.3708H316.135C316.981 47.3708 317.666 48.0549 317.666 48.8989C317.666 49.7428 316.981 50.427 316.135 50.427H314.604C313.759 50.427 313.074 49.7428 313.074 48.8989Z" fill="white"/>
<path d="M319.963 47.3708C319.117 47.3708 318.432 48.0549 318.432 48.8989C318.432 49.7428 319.117 50.427 319.963 50.427H325.704C326.549 50.427 327.235 49.7428 327.235 48.8989C327.235 48.0549 326.549 47.3708 325.704 47.3708H319.963Z" fill="white"/>
<path d="M307.715 125.303C307.715 124.459 308.401 123.775 309.246 123.775H310.777C311.623 123.775 312.308 124.459 312.308 125.303C312.308 126.147 311.623 126.831 310.777 126.831H309.246C308.401 126.831 307.715 126.147 307.715 125.303Z" fill="white"/>
<path d="M313.074 125.303C313.074 124.459 313.759 123.775 314.604 123.775H316.135C316.981 123.775 317.666 124.459 317.666 125.303C317.666 126.147 316.981 126.831 316.135 126.831H314.604C313.759 126.831 313.074 126.147 313.074 125.303Z" fill="white"/>
<path d="M319.963 123.775C319.117 123.775 318.432 124.459 318.432 125.303C318.432 126.147 319.117 126.831 319.963 126.831H325.704C326.549 126.831 327.235 126.147 327.235 125.303C327.235 124.459 326.549 123.775 325.704 123.775H319.963Z" fill="white"/>
<path fill-rule="evenodd" clip-rule="evenodd" d="M117.988 3.19298C118.443 2.7268 119.123 2.55754 119.745 2.75577L132.87 6.9428C133.538 7.15565 134.009 7.75068 134.063 8.4478C134.117 9.14492 133.743 9.80523 133.116 10.1179L127.693 12.8249L125.241 17.9636C124.941 18.5932 124.289 18.9794 123.591 18.941C122.894 18.9026 122.288 18.4474 122.059 17.7886L117.594 4.95738C117.38 4.34224 117.532 3.65917 117.988 3.19298ZM121.978 7.07765L123.936 12.7027L124.837 10.8126C125.002 10.4666 125.279 10.1855 125.622 10.0141L127.791 8.93186L121.978 7.07765Z" fill="white"/>
<path d="M82.9868 93.6611C82.389 94.2578 81.4196 94.2578 80.8218 93.6611C80.2239 93.0643 80.2239 92.0968 80.8218 91.5L81.363 90.9597C81.9609 90.363 82.9302 90.363 83.5281 90.9597C84.126 91.5565 84.126 92.524 83.5281 93.1208L82.9868 93.6611Z" fill="white"/>
<path d="M86.505 90.1494C85.9072 90.7461 84.9378 90.7461 84.34 90.1494C83.7421 89.5526 83.7421 88.5851 84.34 87.9883L84.8812 87.448C85.4791 86.8513 86.4484 86.8513 87.0463 87.448C87.6442 88.0448 87.6442 89.0123 87.0463 89.6091L86.505 90.1494Z" fill="white"/>
<path d="M87.8582 86.6377C88.4561 87.2344 89.4254 87.2344 90.0232 86.6377L90.5645 86.0974C91.1624 85.5006 91.1624 84.5331 90.5645 83.9363C89.9666 83.3396 88.9973 83.3396 88.3995 83.9363L87.8582 84.4766C87.2603 85.0734 87.2603 86.0409 87.8582 86.6377Z" fill="white"/>
<path d="M93.5415 83.126C92.9436 83.7227 91.9743 83.7227 91.3764 83.126C90.7785 82.5292 90.7785 81.5617 91.3764 80.9649L91.9177 80.4246C92.5155 79.8279 93.4849 79.8279 94.0827 80.4246C94.6806 81.0214 94.6806 81.9889 94.0827 82.5857L93.5415 83.126Z" fill="white"/>
<path d="M204.378 83.2809C205.224 83.2809 205.909 83.965 205.909 84.809C205.909 85.6529 205.224 86.3371 204.378 86.3371H194.81C193.964 86.3371 193.279 85.6529 193.279 84.809C193.279 83.965 193.964 83.2809 194.81 83.2809H204.378Z" fill="white"/>
<path d="M210.119 88.2472C210.965 88.2472 211.65 88.9313 211.65 89.7753C211.65 90.6192 210.965 91.3034 210.119 91.3034H197.872C197.026 91.3034 196.341 90.6192 196.341 89.7753C196.341 88.9313 197.026 88.2472 197.872 88.2472H210.119Z" fill="white"/>
<path fill-rule="evenodd" clip-rule="evenodd" d="M158.394 54.6859C158.425 54.6914 158.457 54.6969 158.49 54.7024C159.121 54.8081 160.006 54.9069 161.011 54.8801C163.034 54.8262 165.409 54.2723 167.284 52.4013C169.17 50.5183 169.828 48.024 169.979 45.8669C169.993 45.6573 170.003 45.4525 170.008 45.2536L165.066 50.1873C164.468 50.7841 163.498 50.7841 162.901 50.1873C162.303 49.5905 162.303 48.623 162.901 48.0263L167.843 43.0926C167.644 43.0982 167.439 43.1078 167.229 43.1224C165.068 43.2728 162.569 43.9292 160.682 45.8122C158.808 47.6832 158.253 50.0536 158.199 52.0733C158.172 53.0768 158.271 53.9596 158.377 54.5895C158.383 54.6224 158.388 54.6545 158.394 54.6859ZM171.272 41.8315L171.604 40.3397C172.184 40.4683 172.638 40.9209 172.766 41.5004L171.272 41.8315ZM171.272 41.8315C171.604 40.3397 171.602 40.3394 171.602 40.3394L171.601 40.3392L171.598 40.3385L171.59 40.3367L171.565 40.3315C171.546 40.3274 171.519 40.322 171.486 40.3154C171.42 40.3024 171.327 40.2851 171.211 40.2654C170.978 40.226 170.649 40.1769 170.243 40.1338C169.433 40.0479 168.303 39.9841 167.016 40.0737C164.466 40.2511 161.129 41.0448 158.517 43.6512C155.894 46.2697 155.204 49.5166 155.138 51.9918C155.105 53.2358 155.227 54.3199 155.357 55.095C155.423 55.484 155.491 55.799 155.544 56.0221C155.571 56.1337 155.594 56.2226 155.611 56.2866C155.62 56.3185 155.627 56.3443 155.632 56.3636L155.639 56.3876L155.642 56.3959L155.643 56.3991L155.643 56.4005C155.643 56.4005 155.643 56.4017 157.111 55.9663L155.643 56.4017C155.791 56.8967 156.179 57.2839 156.675 57.4311L157.111 55.9663C156.675 57.4311 156.676 57.4314 156.676 57.4314L156.677 57.4318L156.68 57.4328L156.689 57.4352L156.713 57.4421C156.732 57.4476 156.758 57.4547 156.79 57.4633C156.854 57.4806 156.943 57.5035 157.055 57.5302C157.278 57.5833 157.594 57.6513 157.984 57.7165C158.76 57.8465 159.846 57.9684 161.093 57.9352C163.573 57.8692 166.825 57.1809 169.449 54.5624C172.06 51.956 172.855 48.625 173.033 46.0794C173.123 44.7946 173.059 43.6672 172.973 42.859C172.93 42.4535 172.88 42.1248 172.841 41.8925C172.821 41.7763 172.804 41.6839 172.791 41.6178C172.784 41.5847 172.779 41.5582 172.775 41.5386L172.769 41.5142L172.768 41.506L172.767 41.5029L172.767 41.5016C172.767 41.5016 172.766 41.5004 171.272 41.8315Z" fill="white"/>
<g clip-path="url(#clip0_8612_40346)">
<path fill-rule="evenodd" clip-rule="evenodd" d="M115.585 123.393C115.585 122.549 116.27 121.865 117.116 121.865H124.77C125.616 121.865 126.301 122.549 126.301 123.393C126.301 124.237 125.616 124.921 124.77 124.921H117.116C116.27 124.921 115.585 124.237 115.585 123.393Z" fill="white"/>
<path fill-rule="evenodd" clip-rule="evenodd" d="M127.832 123.393C127.832 122.549 128.517 121.865 129.363 121.865H132.807C133.653 121.865 134.338 122.549 134.338 123.393C134.338 124.237 133.653 124.921 132.807 124.921H129.363C128.517 124.921 127.832 124.237 127.832 123.393Z" fill="white"/>
<path d="M119.412 126.831C118.566 126.831 117.881 127.516 117.881 128.36C117.881 129.203 118.566 129.888 119.412 129.888H120.177C121.023 129.888 121.708 129.203 121.708 128.36C121.708 127.516 121.023 126.831 120.177 126.831H119.412Z" fill="white"/>
<path d="M124.387 126.831C123.542 126.831 122.856 127.516 122.856 128.36C122.856 129.203 123.542 129.888 124.387 129.888H125.153C125.998 129.888 126.684 129.203 126.684 128.36C126.684 127.516 125.998 126.831 125.153 126.831H124.387Z" fill="white"/>
<path d="M127.832 128.36C127.832 127.516 128.517 126.831 129.363 126.831H130.128C130.974 126.831 131.659 127.516 131.659 128.36C131.659 129.203 130.974 129.888 130.128 129.888H129.363C128.517 129.888 127.832 129.203 127.832 128.36Z" fill="white"/>
<path d="M134.338 126.831C133.493 126.831 132.807 127.516 132.807 128.36C132.807 129.203 133.493 129.888 134.338 129.888H135.104C135.949 129.888 136.635 129.203 136.635 128.36C136.635 127.516 135.949 126.831 135.104 126.831H134.338Z" fill="white"/>
</g>
<path d="M283.669 17.2565C284.267 17.8533 285.236 17.8533 285.834 17.2565C286.432 16.6598 286.432 15.6922 285.834 15.0955L285.293 14.5552C284.695 13.9585 283.726 13.9585 283.128 14.5552C282.53 15.152 282.53 16.1195 283.128 16.7163L283.669 17.2565Z" fill="white"/>
<path d="M280.151 13.7448C280.749 14.3416 281.718 14.3416 282.316 13.7448C282.914 13.1481 282.914 12.1805 282.316 11.5838L281.775 11.0435C281.177 10.4468 280.207 10.4468 279.609 11.0435C279.012 11.6403 279.012 12.6078 279.609 13.2046L280.151 13.7448Z" fill="white"/>
<path d="M278.798 10.2331C278.2 10.8299 277.23 10.8299 276.633 10.2331L276.091 9.69286C275.493 9.0961 275.493 8.12857 276.091 7.53181C276.689 6.93505 277.658 6.93505 278.256 7.53181L278.798 8.07207C279.395 8.66883 279.395 9.63636 278.798 10.2331Z" fill="white"/>
<path d="M273.114 6.72142C273.712 7.31817 274.682 7.31817 275.279 6.72142C275.877 6.12466 275.877 5.15713 275.279 4.56037L274.738 4.02011C274.14 3.42336 273.171 3.42336 272.573 4.02011C271.975 4.61687 271.975 5.5844 272.573 6.18116L273.114 6.72142Z" fill="white"/>
<path d="M239.524 48.2004C238.926 48.7971 238.926 49.7647 239.524 50.3614C240.121 50.9582 241.091 50.9582 241.689 50.3614L242.23 49.8211C242.828 49.2244 242.828 48.2569 242.23 47.6601C241.632 47.0633 240.663 47.0633 240.065 47.6601L239.524 48.2004Z" fill="white"/>
<path fill-rule="evenodd" clip-rule="evenodd" d="M202.656 119.191C199.168 119.191 196.341 122.013 196.341 125.494C196.341 128.976 199.168 131.798 202.656 131.798C203.539 131.798 204.375 131.618 205.134 131.294C205.912 130.963 206.812 131.323 207.144 132.099C207.476 132.875 207.115 133.773 206.337 134.105C205.205 134.587 203.96 134.854 202.656 134.854C197.477 134.854 193.279 130.664 193.279 125.494C193.279 120.325 197.477 116.135 202.656 116.135C207.835 116.135 212.033 120.325 212.033 125.494C212.033 126.823 211.755 128.09 211.252 129.239C210.913 130.012 210.011 130.365 209.236 130.027C208.461 129.689 208.108 128.789 208.446 128.015C208.783 127.245 208.971 126.394 208.971 125.494C208.971 122.013 206.143 119.191 202.656 119.191Z" fill="white"/>
<path d="M340.63 3.6292C340.63 2.67976 339.859 1.9101 338.908 1.9101C337.957 1.9101 337.186 2.67976 337.186 3.6292V7.0674C337.186 8.01683 337.957 8.7865 338.908 8.7865C339.859 8.7865 340.63 8.01683 340.63 7.0674V3.6292Z" fill="white"/>
<path d="M340.63 14.7078C340.63 13.7584 339.859 12.9887 338.908 12.9887C337.957 12.9887 337.186 13.7584 337.186 14.7078V18.146C337.186 19.0955 337.957 19.8651 338.908 19.8651C339.859 19.8651 340.63 19.0955 340.63 18.146V14.7078Z" fill="white"/>
<path d="M341.013 10.8876C341.013 9.93819 341.784 9.16852 342.735 9.16852H346.18C347.131 9.16852 347.902 9.93819 347.902 10.8876C347.902 11.8371 347.131 12.6067 346.18 12.6067H342.735C341.784 12.6067 341.013 11.8371 341.013 10.8876Z" fill="white"/>
<path d="M331.636 9.16852C330.685 9.16852 329.914 9.93819 329.914 10.8876C329.914 11.8371 330.685 12.6067 331.636 12.6067H335.081C336.032 12.6067 336.803 11.8371 336.803 10.8876C336.803 9.93819 336.032 9.16852 335.081 9.16852H331.636Z" fill="white"/>
<path d="M608.541 80.0337C608.541 79.0842 607.77 78.3146 606.819 78.3146C605.868 78.3146 605.097 79.0842 605.097 80.0337V83.4719C605.097 84.4213 605.868 85.191 606.819 85.191C607.77 85.191 608.541 84.4213 608.541 83.4719V80.0337Z" fill="white"/>
<path d="M608.541 91.1123C608.541 90.1629 607.77 89.3932 606.819 89.3932C605.868 89.3932 605.097 90.1629 605.097 91.1123V94.5505C605.097 95.5 605.868 96.2696 606.819 96.2696C607.77 96.2696 608.541 95.5 608.541 94.5505V91.1123Z" fill="white"/>
<path d="M608.924 87.2921C608.924 86.3427 609.695 85.573 610.646 85.573H614.091C615.042 85.573 615.813 86.3427 615.813 87.2921C615.813 88.2415 615.042 89.0112 614.091 89.0112H610.646C609.695 89.0112 608.924 88.2415 608.924 87.2921Z" fill="white"/>
<path d="M599.547 85.573C598.596 85.573 597.825 86.3427 597.825 87.2921C597.825 88.2415 598.596 89.0112 599.547 89.0112H602.992C603.943 89.0112 604.714 88.2415 604.714 87.2921C604.714 86.3427 603.943 85.573 602.992 85.573H599.547Z" fill="white"/>
<path d="M367.039 87.1011C367.039 86.2571 367.724 85.573 368.569 85.573H370.1C370.946 85.573 371.631 86.2571 371.631 87.1011C371.631 87.945 370.946 88.6292 370.1 88.6292H368.569C367.724 88.6292 367.039 87.945 367.039 87.1011Z" fill="white"/>
<path d="M372.397 87.1011C372.397 86.2571 373.082 85.573 373.928 85.573H375.459C376.304 85.573 376.99 86.2571 376.99 87.1011C376.99 87.945 376.304 88.6292 375.459 88.6292H373.928C373.082 88.6292 372.397 87.945 372.397 87.1011Z" fill="white"/>
<path d="M379.286 85.573C378.44 85.573 377.755 86.2571 377.755 87.1011C377.755 87.945 378.44 88.6292 379.286 88.6292H385.027C385.872 88.6292 386.558 87.945 386.558 87.1011C386.558 86.2571 385.872 85.573 385.027 85.573H379.286Z" fill="white"/>
<path fill-rule="evenodd" clip-rule="evenodd" d="M374.018 42.1145C374.601 41.5035 375.57 41.4801 376.182 42.0623L385.06 50.5066C387.061 52.4095 385.712 55.7753 382.948 55.7753H371.255C368.55 55.7753 367.173 52.5301 369.057 50.5916L372.662 46.8801C373.251 46.2742 374.22 46.2594 374.827 46.8469C375.434 47.4344 375.449 48.4018 374.86 49.0076L371.255 52.7192L382.948 52.7192L374.07 44.2749C373.458 43.6927 373.434 42.7254 374.018 42.1145Z" fill="white"/>
<path d="M337.885 124.605C337.288 125.202 337.288 126.169 337.885 126.766C338.483 127.363 339.453 127.363 340.05 126.766L340.592 126.226C341.19 125.629 341.19 124.661 340.592 124.065C339.994 123.468 339.024 123.468 338.427 124.065L337.885 124.605Z" fill="white"/>
<path d="M529.251 9.99809C528.653 10.5948 528.653 11.5624 529.251 12.1591C529.848 12.7559 530.818 12.7559 531.416 12.1591L531.957 11.6189C532.555 11.0221 532.555 10.0546 531.957 9.45783C531.359 8.86107 530.39 8.86107 529.792 9.45783L529.251 9.99809Z" fill="white"/>
<path d="M635.715 48.8989C635.715 48.0549 636.401 47.3708 637.246 47.3708H638.777C639.623 47.3708 640.308 48.0549 640.308 48.8989C640.308 49.7428 639.623 50.427 638.777 50.427H637.246C636.401 50.427 635.715 49.7428 635.715 48.8989Z" fill="white"/>
<path d="M641.073 48.8989C641.073 48.0549 641.759 47.3708 642.604 47.3708H644.135C644.981 47.3708 645.666 48.0549 645.666 48.8989C645.666 49.7428 644.981 50.427 644.135 50.427H642.604C641.759 50.427 641.073 49.7428 641.073 48.8989Z" fill="white"/>
<path d="M647.963 47.3708C647.117 47.3708 646.432 48.0549 646.432 48.8989C646.432 49.7428 647.117 50.427 647.963 50.427H653.704C654.549 50.427 655.235 49.7428 655.235 48.8989C655.235 48.0549 654.549 47.3708 653.704 47.3708H647.963Z" fill="white"/>
<path d="M635.715 125.303C635.715 124.459 636.401 123.775 637.246 123.775H638.777C639.623 123.775 640.308 124.459 640.308 125.303C640.308 126.147 639.623 126.831 638.777 126.831H637.246C636.401 126.831 635.715 126.147 635.715 125.303Z" fill="white"/>
<path d="M641.073 125.303C641.073 124.459 641.759 123.775 642.604 123.775H644.135C644.981 123.775 645.666 124.459 645.666 125.303C645.666 126.147 644.981 126.831 644.135 126.831H642.604C641.759 126.831 641.073 126.147 641.073 125.303Z" fill="white"/>
<path d="M647.963 123.775C647.117 123.775 646.432 124.459 646.432 125.303C646.432 126.147 647.117 126.831 647.963 126.831H653.704C654.549 126.831 655.235 126.147 655.235 125.303C655.235 124.459 654.549 123.775 653.704 123.775H647.963Z" fill="white"/>
<path fill-rule="evenodd" clip-rule="evenodd" d="M445.988 3.19298C446.443 2.7268 447.123 2.55754 447.745 2.75577L460.871 6.9428C461.538 7.15565 462.009 7.75068 462.063 8.4478C462.117 9.14492 461.743 9.80523 461.116 10.1179L455.693 12.8249L453.241 17.9636C452.941 18.5932 452.289 18.9794 451.591 18.941C450.894 18.9026 450.288 18.4474 450.059 17.7886L445.594 4.95738C445.38 4.34224 445.532 3.65917 445.988 3.19298ZM449.978 7.07765L451.936 12.7027L452.837 10.8126C453.002 10.4666 453.279 10.1855 453.622 10.0141L455.791 8.93186L449.978 7.07765Z" fill="white"/>
</g></g></svg>