<svg width="64" height="21" viewBox="0 0 64 21" fill="none" xmlns="http://www.w3.org/2000/svg">
<path fill-rule="evenodd" clip-rule="evenodd" d="M59.0103 1.84889C59.0199 2.60225 58.394 3.22791 57.6326 3.22577C56.8885 3.22372 56.2752 2.61767 56.266 1.87523C56.2565 1.11942 56.8798 0.49718 57.6435 0.50001C58.3926 0.502839 59.0007 1.10303 59.0103 1.84889ZM57.829 14.2018C55.7214 14.2469 53.9713 12.4777 53.9416 10.4216C53.9104 8.26955 55.7108 6.55492 57.7094 6.51502C59.7798 6.47365 61.6016 8.19199 61.6349 10.302C61.6678 12.3884 59.9351 14.2032 57.829 14.2018ZM63.5241 9.20029C62.9572 6.47395 60.6046 4.4557 57.6296 4.51112C56.3158 4.5356 55.1115 4.96907 54.083 5.82292C52.5896 7.06321 51.8892 8.68116 51.9408 10.5931C51.9733 11.7951 52.3519 12.9203 53.1093 13.8896C53.1224 13.9064 53.1378 13.9226 53.1535 13.9392C53.2132 14.0022 53.2779 14.0705 53.2465 14.2001C53.1067 14.2001 52.9665 14.2006 52.826 14.201H52.8259C52.5085 14.2021 52.1898 14.2031 51.8712 14.1988C51.7286 14.1968 51.586 14.199 51.4433 14.2012C51.1248 14.2061 50.8064 14.2111 50.489 14.169L50.4624 14.1619C50.4296 14.1232 50.3953 14.087 50.3386 14.0885C50.0933 13.8311 50.0947 13.5119 50.096 13.1948C50.0962 13.1635 50.0963 13.1322 50.0962 13.1011C50.0925 11.9591 50.0895 10.8172 50.0865 9.67532C50.083 8.34876 50.0795 7.02222 50.075 5.6957C50.0746 5.53424 50.0708 5.36907 50.0376 5.21219C49.9188 4.65336 49.3185 4.30634 48.7732 4.47014C48.2685 4.62165 48.0162 4.98487 48.015 5.57482C48.0118 7.17471 48.0096 8.77459 48.0073 10.3744V10.3746V10.3748V10.375V10.3752V10.3754C48.006 11.2817 48.0047 12.188 48.0033 13.0943C48.0017 14.0349 47.7856 14.2308 46.8015 14.2012C46.453 14.1907 46.2845 14.0312 46.2053 13.6932C46.1682 13.5344 46.1535 13.3743 46.1535 13.2111C46.1529 12.2759 46.1505 11.3406 46.1458 10.4054C46.1457 10.3684 46.1458 10.3314 46.146 10.2943C46.147 10.1075 46.1479 9.92032 46.1025 9.73638C45.8815 7.59687 44.792 6.04029 42.9126 5.03043C41.9822 4.53053 40.9717 4.34682 39.9197 4.34731C36.0941 4.34899 32.2686 4.34849 28.443 4.34799C26.4926 4.34773 24.5422 4.34747 22.5918 4.34751C22.5677 4.34751 22.5435 4.34663 22.5192 4.34575C22.4316 4.34259 22.3436 4.3394 22.2596 4.37746C22.2445 4.38058 22.2292 4.38313 22.2139 4.38568C22.1808 4.39119 22.1478 4.39669 22.1167 4.4079C21.6001 4.59463 21.3335 5.0479 21.4296 5.57258C21.516 6.04526 21.9205 6.36634 22.4436 6.37131C22.6287 6.37297 36.5204 6.38068 39.9135 6.36721C40.897 6.36331 41.784 6.6118 42.5721 7.19814C44.3492 8.52009 44.6864 11.0077 43.1746 12.6989C42.3433 13.6288 41.2899 14.0856 40.028 14.0838C34.3269 14.0761 22.5047 14.0597 22.4437 14.0591C21.8419 14.0531 21.3806 14.4831 21.3658 15.0605C21.3513 15.6279 21.8093 16.0932 22.4028 16.1062C22.5272 16.109 28.6636 16.107 34.1866 16.1051C36.3646 16.1044 38.4473 16.1037 40.0282 16.1033C40.2401 16.1033 40.4532 16.1015 40.6638 16.0802C41.9093 15.9548 43.0299 15.5236 43.9881 14.7026L43.988 14.7027C44.0905 14.7879 44.0763 14.8934 44.0623 14.9974C44.0565 15.0403 44.0507 15.0831 44.0533 15.124C44.0814 15.5879 44.2239 15.9771 44.6735 16.1934C44.87 16.288 45.079 16.3039 45.2928 16.3036L45.7109 16.3031H45.711H45.7111H45.7111H45.7112H45.7113C46.829 16.3017 47.9467 16.3004 49.0645 16.3027C50.6021 16.3061 52.1395 16.2938 53.677 16.2815H53.6771H53.6772H53.6773H53.6774H53.6775C54.1702 16.2775 54.6628 16.2736 55.1554 16.2701C55.604 16.2671 56.0524 16.2564 56.5007 16.2457H56.5008H56.5008H56.5009H56.5009H56.501C56.9603 16.2347 57.4197 16.2238 57.8793 16.2211C58.0024 16.2204 58.8639 16.0986 59.1671 16.0332C62.2805 15.3606 64.1361 12.1438 63.5241 9.20029ZM2.30063 10.2438C2.30102 8.26021 4.03751 6.35953 6.13595 6.41875C8.24863 6.34704 10.0016 8.25436 9.99565 10.2569C9.98961 12.2911 8.21478 14.0918 6.16024 14.0978C4.08746 14.1038 2.30034 12.2925 2.30063 10.2438ZM19.623 5.27611C19.544 4.56158 18.788 4.14372 18.1457 4.46304C17.731 4.66919 17.5711 5.02372 17.5694 5.47358C17.5676 5.97044 17.5633 6.46731 17.559 6.96418C17.5525 7.70188 17.5461 8.43957 17.548 9.17719C17.5491 9.58224 17.5472 9.9873 17.5453 10.3924C17.5411 11.3099 17.5368 12.2275 17.567 13.1452C17.5914 13.8844 17.2666 14.1618 16.5267 14.0776C16.47 14.0711 16.4143 14.0563 16.3586 14.0415L16.3289 14.0336L16.3087 14.0284C16.0662 13.9669 15.928 13.8102 15.8756 13.5666C15.8305 13.3576 15.8207 13.1472 15.8205 12.9345C15.8183 10.477 15.8143 8.01971 15.8103 5.56229V5.56164V5.561V5.56034V5.55969V5.55902V5.55836C15.8102 5.53738 15.8104 5.51636 15.8106 5.49532V5.49527V5.49522V5.49518V5.49513V5.49509C15.8111 5.41616 15.8117 5.33697 15.8021 5.25923C15.7161 4.56421 14.9757 4.15309 14.3441 4.45387C13.894 4.66831 13.7492 5.05114 13.7488 5.52831C13.7481 6.40566 13.7432 7.28301 13.7384 8.16038C13.7336 9.01689 13.7288 9.87342 13.7279 10.73L13.7274 11.1089C13.7261 11.7809 13.7248 12.4529 13.7431 13.1254C13.7604 13.762 13.6924 13.8913 13.1824 14.0808H10.6654C10.6637 14.059 10.6617 14.0436 10.6603 14.0326C10.6582 14.0165 10.6573 14.0097 10.6602 14.0056L10.7092 13.936C10.7787 13.8369 10.8483 13.7378 10.9213 13.6415C11.5666 12.7904 11.8867 11.8057 11.9747 10.7654C12.1143 9.11562 11.665 7.61153 10.5398 6.38128C8.94931 4.64265 6.97302 4.04997 4.67302 4.59787C1.73087 5.29865 -0.127467 8.27006 0.379459 11.2074C0.614776 12.571 1.23263 13.7214 2.26639 14.6426C3.12765 15.4101 4.14258 15.8503 5.27536 16.0359C5.30428 16.0407 5.33501 16.0421 5.36602 16.0435C5.46807 16.0481 5.57313 16.0528 5.62648 16.1781L4.84864 16.9589L3.30434 18.5093C3.29756 18.5161 3.29159 18.5238 3.28563 18.5314L3.28034 18.5381C2.96561 18.9319 2.9818 19.5109 3.31761 19.8784C3.67204 20.2661 4.24687 20.327 4.67614 20.015C4.7792 19.9401 4.87124 19.8488 4.96234 19.7584L4.98112 19.7397L5.62946 19.0979C6.53981 18.1969 7.45019 17.2959 8.35292 16.3872C8.52707 16.2119 8.7018 16.1378 8.94414 16.1487C9.44229 16.1712 9.94131 16.1826 10.44 16.1814C12.2012 16.1767 13.9623 16.1693 15.7235 16.1619H15.7236H15.7238H15.7239H15.724H15.7242L15.7338 16.1619C16.4899 16.1587 17.2461 16.1556 18.0023 16.1526C18.0696 16.1523 18.1369 16.1537 18.2042 16.155L18.2043 16.155C18.3117 16.1571 18.4191 16.1592 18.5263 16.1548C19.2276 16.1269 19.6243 15.7155 19.6299 15.0106C19.6361 14.2117 19.6419 13.4131 19.6412 12.6143C19.6397 10.8046 19.6363 8.99492 19.6329 7.18522V7.18514V7.18506V7.18498V7.18491V7.18483L19.6299 5.53787L19.63 5.4864V5.48637C19.6303 5.41605 19.6307 5.34558 19.623 5.27611ZM16.7493 18.668C17.1739 17.8687 17.7397 17.5533 18.4063 17.7221C19.0329 17.8809 19.467 18.425 19.4661 19.0508C19.4652 19.6785 19.013 20.2444 18.405 20.3785C17.691 20.5361 17.1581 20.2285 16.7418 19.4042C16.5735 19.8168 16.3316 20.1469 15.912 20.314C15.6229 20.4291 15.33 20.4449 15.0323 20.3675C14.448 20.2157 14.0161 19.6399 14.0257 19.0333C14.0356 18.4167 14.4551 17.8902 15.0661 17.7277C15.7409 17.5482 16.284 17.8472 16.7493 18.668ZM48.8581 17.7569C48.1527 17.6012 47.5812 17.9219 47.2029 18.7117C46.7307 17.8877 46.2 17.5976 45.5074 17.7605C44.9448 17.893 44.5122 18.4167 44.4841 18.9994C44.4531 19.6422 44.8158 20.1819 45.4119 20.3823C45.7064 20.4813 45.9999 20.4785 46.2923 20.3763C46.7266 20.2244 47.0032 19.9074 47.1703 19.4585C47.6734 20.3122 48.2275 20.6007 48.9123 20.3985C49.5381 20.2136 49.9211 19.6781 49.8974 19.021C49.8759 18.4194 49.4362 17.8845 48.8581 17.7569ZM11.4491 17.6811C10.7025 17.6899 10.1062 18.2961 10.1054 19.0472C10.1045 19.8134 10.7244 20.4313 11.4819 20.4196C12.2304 20.4081 12.8248 19.8032 12.8261 19.0518C12.8274 18.2854 12.2113 17.6721 11.4491 17.6811ZM40.2297 10.7224C40.3741 10.7261 40.5185 10.7298 40.6503 10.6308C40.8887 10.4515 40.9579 10.2164 40.9051 9.93702C40.86 9.69975 40.646 9.50229 40.3831 9.46463C40.2797 9.4498 40.1736 9.4513 40.0679 9.4528C40.0359 9.45325 40.0039 9.4537 39.9721 9.4537C34.8054 9.45331 29.6385 9.45331 24.4717 9.45331C24.4444 9.45331 24.4169 9.45234 24.3895 9.45137C24.3291 9.44923 24.2688 9.44709 24.2099 9.45526C23.9897 9.48609 23.908 9.38775 23.8669 9.17575C23.7812 8.73302 23.6084 8.3178 23.3969 7.91897C23.389 7.90408 23.3798 7.88938 23.3706 7.87448C23.3344 7.81608 23.2963 7.75482 23.3229 7.66853C23.4045 7.61091 23.4987 7.61664 23.5919 7.62232C23.6199 7.62403 23.6478 7.62573 23.6753 7.6257C25.2901 7.62522 26.9049 7.62588 28.5196 7.62654C32.4211 7.62813 36.3226 7.62973 40.224 7.61517C41.4176 7.61068 42.5353 8.41 42.7491 9.71556C42.9383 10.8723 42.2961 11.9969 41.1639 12.4303C40.8712 12.5424 40.5658 12.5895 40.2491 12.5893C36.2994 12.5871 32.3497 12.587 28.4001 12.5869C26.8584 12.5869 25.3168 12.5868 23.7752 12.5867C23.7087 12.5867 23.6422 12.5828 23.57 12.5786C23.5349 12.5766 23.4986 12.5745 23.4602 12.5727C23.47 12.4386 23.5127 12.3452 23.5527 12.2577C23.565 12.2307 23.5771 12.2043 23.5879 12.1774C23.7319 11.8182 23.8605 11.4559 23.9147 11.0688C23.9628 10.7258 23.9728 10.7257 24.3053 10.7221L24.3093 10.7221C24.3602 10.7215 24.4112 10.7217 24.4621 10.7218C24.486 10.7219 24.51 10.722 24.5339 10.722L26.4879 10.722C31.0408 10.722 35.5937 10.722 40.1466 10.721C40.1742 10.721 40.202 10.7217 40.2297 10.7224Z" fill="white"/>
</svg>
