<svg width="56" height="48" viewBox="0 0 56 48" fill="none" xmlns="http://www.w3.org/2000/svg">
<path fill-rule="evenodd" clip-rule="evenodd" d="M8.70617 16.1322C12.9674 8.15602 21.6082 6.13221 30.249 13.8703C38.8898 21.6084 55.698 16.6084 55.4613 33.3941C55.2245 50.1798 24.8041 51.6084 14.0327 38.5132C9.52762 33.0362 4.44495 24.1084 8.70617 16.1322Z" fill="url(#paint0_linear)"/>
<mask id="mask0" mask-type="alpha" maskUnits="userSpaceOnUse" x="7" y="9" width="49" height="39">
<path fill-rule="evenodd" clip-rule="evenodd" d="M8.70617 16.1322C12.9674 8.15602 21.6082 6.13221 30.249 13.8703C38.8898 21.6084 55.698 16.6084 55.4613 33.3941C55.2245 50.1798 24.8041 51.6084 14.0327 38.5132C9.52762 33.0362 4.44495 24.1084 8.70617 16.1322Z" fill="white"/>
</mask>
<g mask="url(#mask0)">
<path opacity="0.95" d="M21.5667 22.26L38.9116 34.4752C41.0459 31.4141 42.3392 27.8408 42.661 24.1161L21.5667 22.26Z" fill="url(#paint1_linear)"/>
<path opacity="0.95" d="M21.5674 22.2594L19.7216 43.4745C23.4246 43.8029 27.1481 43.1427 30.5162 41.5607L21.5674 22.2594Z" fill="url(#paint2_linear)"/>
<path d="M58.4835 26.9726C58.4835 28.9284 56.8893 30.5141 54.9229 30.5141C53.9267 30.5154 52.9758 30.1003 52.3023 29.3702C51.6965 28.7173 51.3607 27.861 51.3623 26.9726C51.3623 25.0167 52.9566 23.431 54.9229 23.431C55.8162 23.4293 56.6772 23.7634 57.3335 24.3662C58.0674 25.0361 58.4847 25.9818 58.4835 26.9726Z" fill="#FFDE50"/>
<path d="M57.3928 24.4252L52.3617 29.4292C52.1902 29.244 52.039 29.0412 51.9106 28.8242L56.7848 23.9769C57.0038 24.105 57.2074 24.2552 57.3931 24.4255L57.3928 24.4252Z" fill="#FFEA94"/>
<path d="M58.2378 25.6778L53.6209 30.27C53.2967 30.1431 52.993 29.9695 52.7195 29.7547L57.7201 24.7809C57.936 25.0529 58.1105 25.3552 58.2378 25.6778Z" fill="#FFEA94"/>
<path d="M57.6899 26.9726C57.6866 28.4836 56.4592 29.7094 54.9401 29.7187C53.421 29.728 52.1784 28.5174 52.1564 27.0065V26.9726C52.1461 25.9826 52.6712 25.0634 53.5314 24.5654C54.3917 24.0675 55.4546 24.0675 56.3149 24.5654C57.1751 25.0634 57.7002 25.9826 57.6899 26.9726Z" fill="#FAA300"/>
<path d="M56.9111 25.0115L52.9523 28.9492C52.681 28.6795 52.4683 28.3574 52.3272 28.0026C52.2023 27.6879 52.1364 27.3532 52.1327 27.0149V26.9805C52.1329 25.8545 52.8148 24.8395 53.8607 24.4085C54.9066 23.9775 56.1104 24.2155 56.9111 25.0115Z" fill="#FFBD00"/>
<path d="M54.9799 26.3634C55.0297 26.0481 55.3041 25.8166 55.6249 25.8192H56.8249V26.3324H55.7724C55.6232 26.3324 55.4965 26.4431 55.4965 26.5726V27.3604C55.4965 27.4961 55.6333 27.6295 55.7724 27.6295H56.8249V28.1407H55.6249C55.2914 28.1407 55.0274 27.914 54.9799 27.6044C54.9324 27.9143 54.671 28.1407 54.3402 28.1407H53.1503V27.6295H54.1939C54.3316 27.6295 54.4675 27.4961 54.4675 27.3604V26.5726C54.4675 26.4428 54.3416 26.3324 54.1939 26.3324H53.15V25.8192H54.3399C54.6594 25.8175 54.9319 26.0491 54.9799 26.3634Z" fill="#FFEA94"/>
<path d="M53.7489 25.544C53.7489 27.4998 52.1547 29.0855 50.1883 29.0855C49.1921 29.0868 48.2412 28.6717 47.5677 27.9416C46.9618 27.2887 46.6261 26.4324 46.6277 25.544C46.6277 23.5881 48.222 22.0024 50.1883 22.0024C51.0816 22.0007 51.9426 22.3348 52.5988 22.9377C53.3328 23.6075 53.7501 24.5532 53.7489 25.544Z" fill="#FFDE50"/>
<path d="M52.6582 22.9967L47.627 28.0007C47.4556 27.8154 47.3044 27.6126 47.176 27.3956L52.0502 22.5484C52.2692 22.6765 52.4727 22.8267 52.6585 22.997L52.6582 22.9967Z" fill="#FFEA94"/>
<path d="M53.5032 24.2492L48.8863 28.8415C48.5621 28.7145 48.2583 28.5409 47.9849 28.3262L52.9855 23.3523C53.2014 23.6244 53.3759 23.9266 53.5032 24.2492Z" fill="#FFEA94"/>
<path d="M52.9552 25.544C52.9519 27.055 51.7244 28.2808 50.2053 28.2901C48.6862 28.2994 47.4437 27.0888 47.4217 25.5779V25.544C47.4114 24.554 47.9364 23.6348 48.7967 23.1368C49.657 22.6389 50.7199 22.6389 51.5801 23.1368C52.4404 23.6348 52.9655 24.554 52.9552 25.544Z" fill="#FAA300"/>
<path d="M52.1786 23.5829L48.2197 27.5206C47.9485 27.2509 47.7358 26.9288 47.5947 26.574C47.4698 26.2594 47.4038 25.9246 47.4001 25.5863V25.5519C47.4003 24.4259 48.0823 23.4109 49.1282 22.9799C50.174 22.549 51.3779 22.7869 52.1786 23.5829Z" fill="#FFBD00"/>
<path d="M50.2453 24.9348C50.2951 24.6195 50.5695 24.388 50.8903 24.3906H52.0903V24.9038H51.0378C50.8886 24.9038 50.7619 25.0145 50.7619 25.1441V25.9318C50.7619 26.0675 50.8986 26.2009 51.0378 26.2009H52.0903V26.7121H50.8903C50.5568 26.7121 50.2927 26.4854 50.2453 26.1758C50.1978 26.4857 49.9364 26.7121 49.6055 26.7121H48.4157V26.2009H49.4593C49.5969 26.2009 49.7328 26.0675 49.7328 25.9318V25.1441C49.7328 25.0142 49.607 24.9038 49.4593 24.9038H48.4154V24.3906H49.6052C49.9248 24.3889 50.1973 24.6206 50.2453 24.9348Z" fill="#FFEA94"/>
<path d="M56.5897 27.9249C56.5897 29.8808 54.9955 31.4665 53.0291 31.4665C52.0329 31.4677 51.082 31.0527 50.4085 30.3226C49.8027 29.6697 49.4669 28.8134 49.4685 27.9249C49.4685 25.9691 51.0628 24.3834 53.0291 24.3834C53.9225 24.3817 54.7834 24.7157 55.4397 25.3186C56.1737 25.9885 56.591 26.9342 56.5897 27.9249Z" fill="#FFDE50"/>
<path d="M55.499 25.3776L50.4679 30.3816C50.2964 30.1964 50.1452 29.9936 50.0168 29.7766L54.891 24.9293C55.11 25.0574 55.3136 25.2076 55.4993 25.3779L55.499 25.3776Z" fill="#FFEA94"/>
<path d="M56.344 26.6302L51.7271 31.2224C51.4029 31.0955 51.0992 30.9219 50.8257 30.7071L55.8263 25.7333C56.0422 26.0053 56.2167 26.3076 56.344 26.6302Z" fill="#FFEA94"/>
<path d="M55.796 27.925C55.7927 29.436 54.5653 30.6618 53.0462 30.6711C51.527 30.6804 50.2845 29.4698 50.2625 27.9589V27.925C50.2522 26.935 50.7772 26.0158 51.6375 25.5178C52.4978 25.0199 53.5607 25.0199 54.4209 25.5178C55.2812 26.0158 55.8063 26.935 55.796 27.925Z" fill="#FAA300"/>
<path d="M55.0173 25.9639L51.0585 29.9016C50.7872 29.6319 50.5745 29.3098 50.4334 28.955C50.3085 28.6403 50.2426 28.3056 50.2389 27.9672V27.9329C50.2391 26.8069 50.921 25.7919 51.9669 25.3609C53.0128 24.9299 54.2166 25.1679 55.0173 25.9639Z" fill="#FFBD00"/>
<path d="M53.0861 27.3158C53.1359 27.0005 53.4103 26.769 53.7312 26.7716H54.9311V27.2848H53.8786C53.7294 27.2848 53.6027 27.3955 53.6027 27.525V28.3127C53.6027 28.4485 53.7395 28.5819 53.8786 28.5819H54.9311V29.0931H53.7312C53.3976 29.0931 53.1336 28.8664 53.0861 28.5568C53.0386 28.8667 52.7772 29.0931 52.4464 29.0931H51.2565V28.5819H52.3001C52.4378 28.5819 52.5737 28.4485 52.5737 28.3127V27.525C52.5737 27.3952 52.4478 27.2848 52.3001 27.2848H51.2562V26.7716H52.4461C52.7656 26.7699 53.0381 27.0015 53.0861 27.3158Z" fill="#FFEA94"/>
<path d="M50.8676 27.5387C50.8676 29.5442 49.2824 31.1702 47.3273 31.1702C46.3367 31.1714 45.3912 30.7458 44.7215 29.9972C44.1191 29.3277 43.7853 28.4497 43.7869 27.5387C43.7869 25.5332 45.3721 23.9072 47.3273 23.9072C48.2155 23.9055 49.0716 24.248 49.7241 24.8662C50.4539 25.553 50.8688 26.5227 50.8676 27.5387Z" fill="#FFDE50"/>
<path d="M49.7831 24.9267L44.7805 30.0578C44.61 29.8678 44.4597 29.6599 44.332 29.4374L49.1785 24.467C49.3963 24.5984 49.5987 24.7524 49.7834 24.927L49.7831 24.9267Z" fill="#FFEA94"/>
<path d="M50.6234 26.2111L46.0327 30.9199C45.7103 30.7898 45.4083 30.6117 45.1364 30.3915L50.1085 25.2914C50.3232 25.5704 50.4967 25.8802 50.6234 26.2111Z" fill="#FFEA94"/>
<path d="M50.0784 27.5387C50.0751 29.0881 48.8546 30.345 47.3442 30.3546C45.8337 30.3641 44.5982 29.1227 44.5763 27.5735V27.5387C44.5661 26.5236 45.0882 25.5811 45.9435 25.0705C46.7989 24.5598 47.8558 24.5598 48.7112 25.0705C49.5665 25.5811 50.0886 26.5236 50.0784 27.5387Z" fill="#FAA300"/>
<path d="M49.2996 25.527L45.3633 29.5646C45.0936 29.2881 44.882 28.9578 44.7418 28.594C44.6176 28.2714 44.552 27.9281 44.5483 27.5812V27.546C44.5485 26.3914 45.2266 25.3505 46.2665 24.9086C47.3065 24.4667 48.5035 24.7108 49.2996 25.527Z" fill="#FFBD00"/>
<path d="M47.3839 26.9141C47.4335 26.5908 47.7063 26.3534 48.0253 26.356H49.2184V26.8823H48.172C48.0236 26.8823 47.8976 26.9958 47.8976 27.1286V27.9364C47.8976 28.0756 48.0336 28.2123 48.172 28.2123H49.2184V28.7365H48.0253C47.6937 28.7365 47.4311 28.5041 47.3839 28.1866C47.3367 28.5044 47.0768 28.7365 46.7478 28.7365H45.5647V28.2123H46.6024C46.7393 28.2123 46.8744 28.0756 46.8744 27.9364V27.1286C46.8744 26.9955 46.7493 26.8823 46.6024 26.8823H45.5645V26.356H46.7475C47.0653 26.3543 47.3362 26.5919 47.3839 26.9141Z" fill="#FFEA94"/>
<path d="M55.1693 30.3059C55.1693 32.2617 53.5751 33.8475 51.6087 33.8475C50.6125 33.8487 49.6616 33.4336 48.9881 32.7035C48.3823 32.0507 48.0465 31.1943 48.0481 30.3059C48.0481 28.35 49.6424 26.7643 51.6087 26.7643C52.502 26.7626 53.363 27.0967 54.0193 27.6996C54.7532 28.3694 55.1705 29.3151 55.1693 30.3059Z" fill="#FFDE50"/>
<path d="M54.0786 27.7586L49.0474 32.7626C48.876 32.5773 48.7248 32.3745 48.5964 32.1576L53.4706 27.3103C53.6896 27.4384 53.8932 27.5886 54.0789 27.7589L54.0786 27.7586Z" fill="#FFEA94"/>
<path d="M54.9236 29.0111L50.3067 33.6034C49.9825 33.4764 49.6787 33.3028 49.4053 33.0881L54.4059 28.1142C54.6218 28.3863 54.7962 28.6885 54.9236 29.0111Z" fill="#FFEA94"/>
<path d="M54.3757 30.3059C54.3724 31.8169 53.145 33.0427 51.6259 33.052C50.1068 33.0613 48.8642 31.8507 48.8422 30.3398V30.3059C48.8319 29.3159 49.357 28.3967 50.2172 27.8987C51.0775 27.4008 52.1404 27.4008 53.0006 27.8987C53.8609 28.3967 54.386 29.3159 54.3757 30.3059Z" fill="#FAA300"/>
<path d="M53.5839 28.338L49.625 32.2757C49.3538 32.006 49.141 31.6838 49 31.3291C48.875 31.0144 48.8091 30.6796 48.8054 30.3413V30.307C48.8056 29.181 49.4876 28.1659 50.5334 27.735C51.5793 27.304 52.7832 27.542 53.5839 28.338Z" fill="#FFBD00"/>
<path d="M51.6657 29.6967C51.7155 29.3814 51.9899 29.1499 52.3107 29.1525H53.5107V29.6657H52.4582C52.309 29.6657 52.1823 29.7764 52.1823 29.906V30.6937C52.1823 30.8294 52.319 30.9628 52.4582 30.9628H53.5107V31.474H52.3107C51.9772 31.474 51.7132 31.2473 51.6657 30.9377C51.6182 31.2476 51.3568 31.474 51.026 31.474H49.8361V30.9628H50.8797C51.0173 30.9628 51.1532 30.8294 51.1532 30.6937V29.906C51.1532 29.7761 51.0274 29.6657 50.8797 29.6657H49.8358V29.1525H51.0257C51.3452 29.1508 51.6177 29.3825 51.6657 29.6967Z" fill="#FFEA94"/>
<path d="M60.6142 30.3059C60.6142 32.2617 59.0199 33.8475 57.0535 33.8475C56.0574 33.8487 55.1065 33.4336 54.4329 32.7035C53.8271 32.0507 53.4914 31.1943 53.4929 30.3059C53.4929 28.35 55.0872 26.7643 57.0535 26.7643C57.9469 26.7626 58.8079 27.0967 59.4641 27.6996C60.1981 28.3694 60.6154 29.3151 60.6142 30.3059Z" fill="#FFDE50"/>
<path d="M59.5234 27.7586L54.4923 32.7626C54.3208 32.5773 54.1696 32.3745 54.0413 32.1576L58.9155 27.3103C59.1344 27.4384 59.338 27.5886 59.5237 27.7589L59.5234 27.7586Z" fill="#FFEA94"/>
<path d="M60.3685 29.0111L55.7515 33.6034C55.4273 33.4764 55.1236 33.3028 54.8501 33.0881L59.8507 28.1142C60.0666 28.3863 60.2411 28.6885 60.3685 29.0111Z" fill="#FFEA94"/>
<path d="M59.8205 30.3059C59.8173 31.8169 58.5898 33.0427 57.0707 33.052C55.5516 33.0613 54.309 31.8507 54.287 30.3398V30.3059C54.2767 29.3159 54.8018 28.3967 55.6621 27.8987C56.5223 27.4008 57.5852 27.4008 58.4455 27.8987C59.3058 28.3967 59.8308 29.3159 59.8205 30.3059Z" fill="#FAA300"/>
<path d="M59.0287 28.338L55.0698 32.2757C54.7986 32.006 54.5858 31.6838 54.4448 31.3291C54.3199 31.0144 54.2539 30.6796 54.2502 30.3413V30.307C54.2504 29.181 54.9324 28.1659 55.9783 27.735C57.0241 27.304 58.228 27.542 59.0287 28.338Z" fill="#FFBD00"/>
<path d="M57.1105 29.6967C57.1603 29.3814 57.4347 29.1499 57.7556 29.1525H58.9555V29.6657H57.903C57.7538 29.6657 57.6271 29.7764 57.6271 29.906V30.6937C57.6271 30.8294 57.7639 30.9628 57.903 30.9628H58.9555V31.474H57.7556C57.4221 31.474 57.158 31.2473 57.1105 30.9377C57.063 31.2476 56.8016 31.474 56.4708 31.474H55.2809V30.9628H56.3245C56.4622 30.9628 56.5981 30.8294 56.5981 30.6937V29.906C56.5981 29.7761 56.4723 29.6657 56.3245 29.6657H55.2806V29.1525H56.4705C56.79 29.1508 57.0625 29.3825 57.1105 29.6967Z" fill="#FFEA94"/>
<path d="M49.7605 30.0857C49.7605 32.0515 48.1581 33.6453 46.1818 33.6453C45.1806 33.6465 44.2249 33.2293 43.5479 32.4955C42.939 31.8393 42.6016 30.9787 42.6032 30.0857C42.6032 28.12 44.2055 26.5262 46.1818 26.5262C47.0797 26.5245 47.945 26.8603 48.6046 27.4662C49.3423 28.1394 49.7617 29.0899 49.7605 30.0857Z" fill="#FFDE50"/>
<path d="M48.6643 27.5255L43.6076 32.5549C43.4353 32.3687 43.2833 32.1649 43.1543 31.9468L48.0532 27.075C48.2733 27.2037 48.4779 27.3547 48.6646 27.5258L48.6643 27.5255Z" fill="#FFEA94"/>
<path d="M49.5136 28.7844L44.8733 33.3999C44.5474 33.2724 44.2421 33.0979 43.9673 32.882L48.9932 27.8829C49.2102 28.1564 49.3856 28.4601 49.5136 28.7844Z" fill="#FFEA94"/>
<path d="M48.9627 30.0857C48.9594 31.6044 47.7257 32.8364 46.1989 32.8457C44.6721 32.8551 43.4233 31.6383 43.4012 30.1198V30.0857C43.3908 29.0907 43.9185 28.1669 44.7832 27.6664C45.6478 27.1659 46.7161 27.1659 47.5807 27.6664C48.4453 28.1669 48.9731 29.0907 48.9627 30.0857Z" fill="#FAA300"/>
<path d="M48.1582 28.1114L44.1793 32.069C43.9067 31.798 43.6929 31.4742 43.5511 31.1176C43.4256 30.8014 43.3593 30.4649 43.3556 30.1248V30.0903C43.3558 28.9586 44.0412 27.9384 45.0924 27.5053C46.1435 27.0721 47.3535 27.3113 48.1582 28.1114Z" fill="#FFBD00"/>
<path d="M46.239 29.4735C46.2891 29.1566 46.5649 28.924 46.8874 28.9265H48.0934V29.4424H47.0356C46.8856 29.4424 46.7582 29.5536 46.7582 29.6838V30.4755C46.7582 30.612 46.8957 30.746 47.0356 30.746H48.0934V31.2598H46.8874C46.5522 31.2598 46.2868 31.032 46.239 30.7208C46.1913 31.0323 45.9286 31.2598 45.5961 31.2598H44.4002V30.746H45.449C45.5874 30.746 45.724 30.612 45.724 30.4755V29.6838C45.724 29.5533 45.5976 29.4424 45.449 29.4424H44.3999V28.9265H45.5958C45.917 28.9248 46.1908 29.1577 46.239 29.4735Z" fill="#FFEA94"/>
<rect x="43.3134" y="28.9071" width="14.6776" height="19.0476" fill="#663C16"/>
<path fill-rule="evenodd" clip-rule="evenodd" d="M57.9822 28.9071H43.3149C43.3149 28.9071 43.0381 31.8833 50.2334 31.8833C57.4287 31.8833 57.9822 31.4071 57.9822 28.9071Z" fill="#854F1F"/>
<path fill-rule="evenodd" clip-rule="evenodd" d="M43.1508 32.09L41.2776 23.2271H39.9266L38.6926 32.09H43.1508Z" fill="#D4A181"/>
<path fill-rule="evenodd" clip-rule="evenodd" d="M52.879 42.9414L49.0558 43.7081C52.9006 50.9502 54.9625 54.7886 55.2415 55.2231C55.8693 56.2008 55.2836 57.9927 55.0672 58.9363C56.4245 59.2556 55.8892 57.1908 57.6069 57.6219C59.1746 58.0154 60.5039 59.0253 61.9657 57.6633C62.1455 57.4959 62.277 56.9725 61.6643 56.7041C60.1376 56.0353 57.8821 54.783 57.5163 54.2968C57.0176 53.6338 55.4718 49.8487 52.879 42.9414Z" fill="#D4A181"/>
<path fill-rule="evenodd" clip-rule="evenodd" d="M47.5914 48.9757C47.5914 48.9757 39.4426 48.9109 34.8709 48.9109C34.2186 48.9109 34.3415 47.9589 34.4358 47.4785C35.5241 41.9344 37.9429 35.4285 38.9338 27.9547L42.3354 27.4785C45.7411 33.0147 46.9189 39.8308 47.5914 48.9757Z" fill="#424750"/>
<path fill-rule="evenodd" clip-rule="evenodd" d="M42.3688 27.6899L41.4232 27.6401L41.1024 28.5742C46.7449 42.1492 51.1973 51.0744 54.4594 55.35L57.4783 54.9159C56.1822 42.7496 51.2923 33.9204 42.3688 27.6899Z" fill="#EF394E"/>
<path fill-rule="evenodd" clip-rule="evenodd" d="M49.5868 52.9547L37.9136 52.9357C35.426 46.5818 40.946 27.5976 40.946 27.5976L42.4847 27.3595C45.5632 32.9119 48.9852 43.7831 49.5868 52.9547Z" fill="url(#paint3_linear)"/>
<path fill-rule="evenodd" clip-rule="evenodd" d="M44.3196 29.1428C44.3196 29.1428 44.7317 29.4671 45.2073 29.8714C45.6829 30.2756 46.1543 30.7071 46.1543 30.7071C46.1543 30.7071 44.3787 37.4785 44.8522 38.9071C45.3257 40.3357 48.64 45.2166 48.64 45.2166L49.1134 47.0024C49.1134 47.0024 43.1951 40.9309 42.6032 38.4309C42.2481 36.8833 44.3196 29.1428 44.3196 29.1428Z" fill="#854F1F"/>
</g>
<path fill-rule="evenodd" clip-rule="evenodd" d="M36.508 27.6139C37.8992 27.9779 43.2333 25.1931 42.9544 21.1576C42.6755 17.1221 37.1417 18.0098 36.0653 20.0466C34.9889 22.0834 35.1168 27.2499 36.508 27.6139Z" fill="#D4A181"/>
<path fill-rule="evenodd" clip-rule="evenodd" d="M34.1223 17.4402C34.2147 17.1108 34.463 16.8288 34.7976 16.7451C34.8788 16.7248 34.9626 16.7166 35.0461 16.72C35.076 16.7212 35.0844 16.73 35.0984 16.7087C35.1088 16.693 35.1091 16.6544 35.1133 16.6359C35.1266 16.5783 35.1433 16.5214 35.1638 16.466C35.2338 16.277 35.3515 16.1097 35.4933 15.9688C35.7587 15.7052 36.1172 15.5232 36.4896 15.4903C36.6935 15.4723 36.8958 15.5059 37.0886 15.5732C37.1883 15.6081 37.2851 15.6515 37.3793 15.6994C37.4077 15.7139 37.4998 15.7846 37.5282 15.78C37.5597 15.775 37.6229 15.6956 37.6484 15.6757C37.9645 15.4296 38.3548 15.3328 38.7484 15.3358C39.1928 15.3391 39.6206 15.3616 39.9912 15.6366C40.0696 15.6948 40.1444 15.7586 40.2155 15.8257C40.2529 15.861 40.2892 15.8977 40.3238 15.9358C40.3447 15.9589 40.365 15.9824 40.3846 16.0066C40.4178 16.0477 40.4125 16.0611 40.459 16.0325C40.6373 15.9225 40.844 15.8711 41.0522 15.897C41.1758 15.9125 41.296 15.9501 41.4102 15.9997C41.4491 16.0166 41.5391 16.0839 41.5805 16.0846C41.6216 16.0852 41.7104 16.0228 41.7527 16.007C41.9814 15.9212 42.2279 15.9001 42.4683 15.9397C42.7163 15.9806 42.9599 16.081 43.17 16.2198C43.2711 16.2866 43.3592 16.3605 43.43 16.4598C43.4606 16.5027 43.4883 16.548 43.5229 16.5877C43.5432 16.611 43.5834 16.6349 43.5943 16.6643C43.5877 16.6467 43.8655 16.538 43.8917 16.5311C44.0313 16.4941 44.1734 16.5016 44.3101 16.5472C44.5672 16.6331 44.7883 16.8257 44.97 17.0232C45.0633 17.1246 45.145 17.2367 45.2143 17.3561C45.2475 17.4134 45.2779 17.4722 45.3057 17.5323C45.3192 17.5614 45.3281 17.5978 45.3459 17.6241C45.3687 17.6579 45.3841 17.6585 45.4255 17.6732C45.6359 17.7481 45.8277 17.8747 45.9738 18.0459C46.1215 18.219 46.2173 18.4322 46.2575 18.6567C46.2599 18.67 46.2613 18.7248 46.2689 18.7319C46.2794 18.7418 46.3217 18.7374 46.3377 18.7393C46.3931 18.7459 46.4482 18.7558 46.5025 18.7688C46.6026 18.7929 46.7 18.8283 46.7921 18.8745C47.1514 19.055 47.4083 19.3933 47.5341 19.7739C47.666 20.1734 47.6637 20.6311 47.506 21.0231C47.4805 21.0864 47.4502 21.1479 47.4146 21.206C47.3927 21.2417 47.3857 21.2418 47.3999 21.2793C47.4157 21.3209 47.4446 21.3614 47.4634 21.4021C47.5247 21.5349 47.5675 21.6758 47.5946 21.8197C47.639 22.0558 47.661 22.3038 47.6172 22.5417C47.5968 22.6521 47.5614 22.7601 47.5073 22.8585C47.4798 22.9086 47.4475 22.9562 47.4111 23.0002C47.3922 23.023 47.3721 23.0448 47.3511 23.0657C47.3391 23.0777 47.3233 23.0881 47.3131 23.1015C47.2882 23.134 47.283 23.1073 47.2958 23.155C47.3138 23.2218 47.3546 23.2876 47.3795 23.3526C47.4052 23.4196 47.4285 23.4874 47.4497 23.5559C47.4928 23.6947 47.5292 23.836 47.5519 23.9797C47.5957 24.2556 47.588 24.5497 47.4594 24.8029C47.4045 24.9112 47.3256 25.0062 47.2299 25.0802C47.1831 25.1163 47.1324 25.1475 47.0792 25.1731C47.0519 25.1863 47.017 25.1919 47.0045 25.2187C46.9911 25.2476 47.011 25.3049 47.0156 25.3372C47.0551 25.6178 47.0749 25.9125 46.9927 26.1875C46.9171 26.4408 46.7504 26.6644 46.534 26.8125C46.1143 27.0998 45.5485 27.0836 45.1075 26.8536C44.9925 26.7937 44.8849 26.7192 44.789 26.6314C44.5447 26.9653 44.0419 26.9547 43.6849 26.8596C43.24 26.7411 42.883 26.4271 42.6774 26.0145C42.3962 26.362 41.806 26.2493 41.611 25.8723C41.5632 25.78 41.5349 25.6783 41.521 25.5754C41.5136 25.5213 41.5183 25.4667 41.5128 25.413C41.5058 25.3446 41.4608 25.2781 41.4349 25.2119C41.3845 25.0831 41.3532 24.9501 41.3519 24.8112C41.3512 24.7386 41.3602 24.668 41.367 24.596C41.3731 24.5312 41.3554 24.4709 41.3454 24.407C41.4595 24.426 41.5985 24.3948 41.706 24.3612C41.8114 24.3283 41.9102 24.2415 41.9847 24.1622C42.1576 23.9781 42.2632 23.7368 42.3354 23.4967C42.4939 22.9696 42.429 22.3372 41.9067 22.0479C41.6634 21.9131 40.9345 21.9135 40.6447 21.9802C40.34 22.0502 39.9946 22.7327 39.9776 22.7968C39.9671 22.8365 39.9724 22.8857 39.9365 22.9121C39.8575 22.9703 39.7273 22.8693 39.6691 22.8195C39.5686 22.7335 39.4969 22.6191 39.4348 22.5032C39.2995 22.2505 39.1905 21.9796 39.1134 21.7031C39.054 21.4898 39.0161 21.27 38.9384 21.0622C38.8612 20.8554 38.7394 20.6706 38.5501 20.5535C38.3441 20.4261 38.108 20.3589 37.8819 20.2789C37.6578 20.1995 37.4376 20.1025 37.2638 19.9341C37.2256 19.8971 37.1885 19.8578 37.1578 19.8142C37.1335 19.7798 37.1095 19.7139 37.0725 19.6921C37.0151 19.6581 36.9311 19.7464 36.8814 19.7784C36.6362 19.9366 36.4315 20.1571 36.2665 20.3981C36.1023 20.6377 35.9677 20.8683 35.8582 21.1359C35.7771 21.3343 35.7264 21.5885 35.5836 21.7511C35.5199 21.8237 35.0461 21.8677 34.8926 21.8043C34.7392 21.7409 34.5672 21.5762 34.5157 21.4731C34.4629 21.3675 34.4503 21.2515 34.4729 21.1359C34.4861 21.0678 34.5132 21.0043 34.528 20.9375C34.5405 20.8814 34.5518 20.8284 34.5787 20.777C34.6297 20.6796 34.7168 20.6095 34.8218 20.5803C34.7125 20.4779 34.6219 20.3555 34.5592 20.2187C34.4941 20.0765 34.4389 19.9036 34.4232 19.7476C34.4105 19.6208 34.4302 19.4895 34.4985 19.3806C34.5702 19.2664 34.6972 19.1918 34.8071 19.1206C34.6392 18.9872 34.4956 18.8251 34.3775 18.6456C34.1478 18.2965 34.0057 17.8564 34.1223 17.4402Z" fill="#030A16"/>
<path fill-rule="evenodd" clip-rule="evenodd" d="M28.2761 41.5887L21.3732 37.9269C20.2128 36.5828 19.0743 35.5432 17.9577 34.8081C17.618 34.6718 17.0268 34.5963 17.5951 35.5756C18.1635 36.5549 18.7177 37.6108 18.4418 37.9206C18.166 38.2304 17.4581 37.8173 17.1314 38.3296C16.9136 38.6712 18.1198 39.183 20.7499 39.8649L25.7971 44.3728L28.2761 41.5887Z" fill="#D4A181"/>
<path fill-rule="evenodd" clip-rule="evenodd" d="M38.8289 28.9226C37.1284 30.5847 35.8352 33.0762 34.6844 35.2933C33.4916 37.5913 32.4519 39.5943 31.2706 40.0731C29.0057 40.9909 26.4899 40.0511 22.8348 38.5031L21.5596 41.0195C24.7517 44.8994 31.2339 48.1803 34.2501 46.5491C34.3992 46.4685 34.5452 46.3815 34.6882 46.2886C35.0894 44.5163 35.6243 42.6 36.1822 40.6016C37.2266 36.8608 38.3512 32.8323 38.8289 28.9226Z" fill="url(#paint4_linear)"/>
<path opacity="0.95" d="M21.567 22.2653L40.7576 13.2654C39.189 9.87593 36.7587 6.96278 33.7124 4.82019L21.567 22.2653Z" fill="url(#paint5_linear)"/>
<path opacity="0.95" d="M21.5666 22.2632L23.4123 1.04821C19.7093 0.719772 15.9858 1.37993 12.6177 2.962L21.5666 22.2632Z" fill="url(#paint6_linear)"/>
<path opacity="0.95" d="M21.5722 22.2599L4.22729 10.0448C2.09301 13.1059 0.799671 16.6792 0.477905 20.4038L21.5722 22.2599Z" fill="url(#paint7_linear)"/>
<path opacity="0.95" d="M21.5707 22.2596L2.38013 31.2595C3.94879 34.649 6.37902 37.5622 9.42535 39.7047L21.5707 22.2596Z" fill="url(#paint8_linear)"/>
<path d="M25.4494 17.9006C25.4494 20.7515 23.1416 23.0629 20.2953 23.0629C18.8532 23.0647 17.4768 22.4596 16.5018 21.3955C15.6248 20.4438 15.1389 19.1956 15.1411 17.9006C15.1411 15.0497 17.4489 12.7382 20.2953 12.7382C21.5884 12.7358 22.8347 13.2227 23.7846 14.1015C24.8471 15.0779 25.4512 16.4564 25.4494 17.9006Z" fill="#FFDE50"/>
<path d="M23.8705 14.1875L16.5877 21.4815C16.3395 21.2115 16.1207 20.9159 15.9348 20.5996L22.9904 13.5341C23.3074 13.7208 23.6021 13.9397 23.8709 14.188L23.8705 14.1875Z" fill="#FFEA94"/>
<path d="M25.0938 16.0133L18.4106 22.7071C17.9412 22.5221 17.5016 22.2691 17.1057 21.956L24.3443 14.7059C24.6568 15.1025 24.9094 15.543 25.0938 16.0133Z" fill="#FFEA94"/>
<path d="M24.3005 17.9006C24.2958 20.1031 22.519 21.8899 20.32 21.9034C18.121 21.917 16.3224 20.1523 16.2905 17.9501V17.9006C16.2756 16.4576 17.0356 15.1177 18.2809 14.3919C19.5262 13.666 21.0648 13.666 22.3101 14.3919C23.5553 15.1177 24.3154 16.4576 24.3005 17.9006Z" fill="#FAA300"/>
<path d="M23.192 15.0363L17.4614 20.776C17.0688 20.3829 16.7608 19.9133 16.5566 19.3962C16.3758 18.9375 16.2804 18.4495 16.275 17.9564V17.9064C16.2753 16.2651 17.2625 14.7855 18.7764 14.1573C20.2903 13.5291 22.033 13.876 23.192 15.0363Z" fill="#FFBD00"/>
<path d="M20.3777 17.0126C20.4498 16.553 20.847 16.2156 21.3114 16.2193H23.0484V16.9674H21.5249C21.3089 16.9674 21.1255 17.1288 21.1255 17.3176V18.4658C21.1255 18.6637 21.3235 18.8581 21.5249 18.8581H23.0484V19.6032H21.3114C20.8287 19.6032 20.4464 19.2729 20.3777 18.8216C20.309 19.2733 19.9306 19.6032 19.4517 19.6032H17.7293V18.8581H19.2399C19.4392 18.8581 19.6359 18.6637 19.6359 18.4658V17.3176C19.6359 17.1283 19.4538 16.9674 19.2399 16.9674H17.7289V16.2193H19.4512C19.9138 16.2168 20.3082 16.5546 20.3777 17.0126Z" fill="#FFEA94"/>
<path d="M29.8119 23.6496C29.8119 26.4878 27.5145 28.7889 24.6808 28.7889C23.2452 28.7907 21.8748 28.1884 20.9042 27.1289C20.0311 26.1815 19.5473 24.9389 19.5496 23.6496C19.5496 20.8114 21.8471 18.5103 24.6808 18.5103C25.9681 18.5078 27.2089 18.9926 28.1546 19.8675C29.2123 20.8395 29.8137 22.2118 29.8119 23.6496Z" fill="#FFDE50"/>
<path d="M28.2401 19.9531L20.9897 27.2146C20.7426 26.9458 20.5247 26.6515 20.3397 26.3366L27.3639 19.3026C27.6795 19.4884 27.9728 19.7064 28.2405 19.9535L28.2401 19.9531Z" fill="#FFEA94"/>
<path d="M29.4579 21.7707L22.8044 28.4347C22.3372 28.2506 21.8995 27.9986 21.5054 27.687L28.7117 20.4692C29.0229 20.864 29.2743 21.3025 29.4579 21.7707Z" fill="#FFEA94"/>
<path d="M28.6681 23.6496C28.6634 25.8423 26.8945 27.6211 24.7054 27.6346C22.5162 27.6482 20.7255 25.8913 20.6938 23.6989V23.6496C20.679 22.213 21.4356 20.8792 22.6754 20.1565C23.9151 19.4339 25.4468 19.4339 26.6866 20.1565C27.9263 20.8792 28.683 22.213 28.6681 23.6496Z" fill="#FAA300"/>
<path d="M27.5646 20.7981L21.8595 26.5122C21.4687 26.1209 21.1621 25.6534 20.9588 25.1386C20.7788 24.682 20.6838 24.1961 20.6785 23.7052V23.6554C20.6787 22.0214 21.6615 20.5484 23.1687 19.923C24.6759 19.2976 26.4108 19.643 27.5646 20.7981Z" fill="#FFBD00"/>
<path d="M24.7629 22.7656C24.8347 22.3081 25.2301 21.9722 25.6925 21.9759H27.4217V22.7206H25.905C25.6899 22.7206 25.5073 22.8812 25.5073 23.0693V24.2123C25.5073 24.4093 25.7044 24.6029 25.905 24.6029H27.4217V25.3447H25.6925C25.2118 25.3447 24.8313 25.0158 24.7629 24.5665C24.6944 25.0162 24.3177 25.3447 23.841 25.3447H22.1263V24.6029H23.6301C23.8286 24.6029 24.0244 24.4093 24.0244 24.2123V23.0693C24.0244 22.8808 23.8431 22.7206 23.6301 22.7206H22.1259V21.9759H23.8405C24.301 21.9734 24.6937 22.3096 24.7629 22.7656Z" fill="#FFEA94"/>
<path d="M21.3818 23.6726C21.3818 26.5235 19.074 28.8349 16.2276 28.8349C14.7856 28.8367 13.4092 28.2317 12.4342 27.1675C11.5572 26.2158 11.0712 24.9677 11.0735 23.6726C11.0735 20.8217 13.3813 18.5103 16.2276 18.5103C17.5208 18.5078 18.7671 18.9948 19.717 19.8735C20.7795 20.8499 21.3835 22.2284 21.3818 23.6726Z" fill="#FFDE50"/>
<path d="M19.8029 19.9596L12.52 27.2535C12.2719 26.9835 12.053 26.6879 11.8672 26.3716L18.9228 19.3061C19.2398 19.4928 19.5344 19.7118 19.8033 19.96L19.8029 19.9596Z" fill="#FFEA94"/>
<path d="M21.0262 21.7853L14.3429 28.4792C13.8736 28.2942 13.4339 28.0411 13.0381 27.728L20.2767 20.478C20.5892 20.8745 20.8418 21.3151 21.0262 21.7853Z" fill="#FFEA94"/>
<path d="M20.2329 23.6726C20.2281 25.8751 18.4513 27.6619 16.2524 27.6755C14.0534 27.6891 12.2547 25.9244 12.2229 23.7221V23.6726C12.208 22.2296 12.968 20.8898 14.2133 20.1639C15.4586 19.438 16.9971 19.438 18.2424 20.1639C19.4877 20.8898 20.2478 22.2296 20.2329 23.6726Z" fill="#FAA300"/>
<path d="M19.1244 20.8083L13.3938 26.548C13.0011 26.1549 12.6932 25.6853 12.489 25.1683C12.3082 24.7096 12.2127 24.2216 12.2074 23.7284V23.6784C12.2077 22.0371 13.1949 20.5575 14.7088 19.9293C16.2227 19.3012 17.9653 19.6481 19.1244 20.8083Z" fill="#FFBD00"/>
<path d="M16.3101 22.7846C16.3822 22.3251 16.7794 21.9876 17.2438 21.9914H18.9808V22.7395H17.4573C17.2412 22.7395 17.0578 22.9008 17.0578 23.0897V24.2378C17.0578 24.4357 17.2558 24.6302 17.4573 24.6302H18.9808V25.3753H17.2438C16.761 25.3753 16.3788 25.0449 16.3101 24.5936C16.2413 25.0453 15.8629 25.3753 15.384 25.3753H13.6617V24.6302H15.1723C15.3716 24.6302 15.5683 24.4357 15.5683 24.2378V23.0897C15.5683 22.9004 15.3862 22.7395 15.1723 22.7395H13.6613V21.9914H15.3836C15.8462 21.9889 16.2406 22.3266 16.3101 22.7846Z" fill="#FFEA94"/>
<defs>
<linearGradient id="paint0_linear" x1="45.9504" y1="28.5549" x2="41.1504" y2="6.48764" gradientUnits="userSpaceOnUse">
<stop stop-color="#F2F2F2"/>
<stop offset="1" stop-color="white"/>
</linearGradient>
<linearGradient id="paint1_linear" x1="41.2758" y1="26.1741" x2="35.8819" y2="19.632" gradientUnits="userSpaceOnUse">
<stop stop-color="#F2F2F2"/>
<stop offset="1" stop-color="#FFEA94"/>
</linearGradient>
<linearGradient id="paint2_linear" x1="28.6194" y1="40.047" x2="32.0411" y2="30.7151" gradientUnits="userSpaceOnUse">
<stop stop-color="#F2F2F2"/>
<stop offset="1" stop-color="#FFEA94"/>
</linearGradient>
<linearGradient id="paint3_linear" x1="45.5276" y1="55.3788" x2="37.0237" y2="50.7606" gradientUnits="userSpaceOnUse">
<stop stop-color="#C12A3C"/>
<stop offset="1" stop-color="#EF394E"/>
</linearGradient>
<linearGradient id="paint4_linear" x1="32.1376" y1="49.1125" x2="36.4802" y2="42.7704" gradientUnits="userSpaceOnUse">
<stop stop-color="#C12A3C"/>
<stop offset="1" stop-color="#EF394E"/>
</linearGradient>
<linearGradient id="paint5_linear" x1="35.8184" y1="6.17889" x2="26.141" y2="6.26773" gradientUnits="userSpaceOnUse">
<stop stop-color="white"/>
<stop offset="1" stop-color="#FFEA94"/>
</linearGradient>
<linearGradient id="paint6_linear" x1="16.2969" y1="5.48006" x2="20.1139" y2="13.675" gradientUnits="userSpaceOnUse">
<stop stop-color="white"/>
<stop offset="1" stop-color="#FFEA94"/>
</linearGradient>
<linearGradient id="paint7_linear" x1="18.7755" y1="16.3451" x2="12.3318" y2="8.55661" gradientUnits="userSpaceOnUse">
<stop stop-color="#FFEA94"/>
<stop offset="1" stop-color="white"/>
</linearGradient>
<linearGradient id="paint8_linear" x1="10.7384" y1="23.8964" x2="3.79447" y2="31.0419" gradientUnits="userSpaceOnUse">
<stop stop-color="#FFEA94"/>
<stop offset="1" stop-color="white"/>
</linearGradient>
</defs>
</svg>
