<svg width="56" height="56" viewBox="0 0 56 56" fill="none" xmlns="http://www.w3.org/2000/svg">
<path fill-rule="evenodd" clip-rule="evenodd" d="M21.7778 40.4444V12.4444C21.7778 11.5853 22.4743 10.8889 23.3334 10.8889H51.3334C52.1925 10.8889 52.8889 11.5853 52.8889 12.4444V38.8889C52.8889 39.748 52.1925 40.4444 51.3334 40.4444H21.7778Z" fill="url(#paint0_linear_6336_18421)"/>
<path fill-rule="evenodd" clip-rule="evenodd" d="M7.77775 40.4444H4.11108C3.5588 40.4444 3.11108 39.9967 3.11108 39.4444V22.8148C3.11108 17.9465 6.82546 14 11.4074 14H21.7778V40.4444H17.1111H7.77775Z" fill="url(#paint1_linear_6336_18421)"/>
<path d="M3.11108 22.8148V29.5556H18.6666V17.1111H5.08173C3.85261 18.6485 3.11108 20.6396 3.11108 22.8148Z" fill="#F0F0F1"/>
<path d="M17.1112 40.4444C17.1112 43.0218 15.0218 45.1111 12.4445 45.1111C9.86717 45.1111 7.77783 43.0218 7.77783 40.4444C7.77783 37.8671 9.86717 35.7778 12.4445 35.7778C15.0218 35.7778 17.1112 37.8671 17.1112 40.4444Z" fill="#030A16"/>
<path fill-rule="evenodd" clip-rule="evenodd" d="M12.4444 37.3333C10.7262 37.3333 9.33328 38.7262 9.33328 40.4445C9.33328 42.1627 10.7262 43.5556 12.4444 43.5556C14.1626 43.5556 15.5555 42.1627 15.5555 40.4445C15.5555 38.7262 14.1626 37.3333 12.4444 37.3333ZM6.22217 40.4445C6.22217 37.008 9.00795 34.2222 12.4444 34.2222C15.8808 34.2222 18.6666 37.008 18.6666 40.4445C18.6666 43.8809 15.8808 46.6667 12.4444 46.6667C9.00795 46.6667 6.22217 43.8809 6.22217 40.4445Z" fill="#232933"/>
<path d="M46.6666 40.4444C46.6666 43.0218 44.5772 45.1111 41.9999 45.1111C39.4226 45.1111 37.3333 43.0218 37.3333 40.4444C37.3333 37.8671 39.4226 35.7778 41.9999 35.7778C44.5772 35.7778 46.6666 37.8671 46.6666 40.4444Z" fill="#030A16"/>
<path fill-rule="evenodd" clip-rule="evenodd" d="M42.0001 37.3333C40.2818 37.3333 38.8889 38.7262 38.8889 40.4445C38.8889 42.1627 40.2818 43.5556 42.0001 43.5556C43.7183 43.5556 45.1112 42.1627 45.1112 40.4445C45.1112 38.7262 43.7183 37.3333 42.0001 37.3333ZM35.7778 40.4445C35.7778 37.008 38.5636 34.2222 42.0001 34.2222C45.4365 34.2222 48.2223 37.008 48.2223 40.4445C48.2223 43.8809 45.4365 46.6667 42.0001 46.6667C38.5636 46.6667 35.7778 43.8809 35.7778 40.4445Z" fill="#232933"/>
<path d="M26.4445 21C26.2382 21 26.0404 21.0819 25.8946 21.2278C25.7487 21.3737 25.6667 21.5715 25.6667 21.7778V28.7778H27.2223V26.4444H30.3334V24.8889H27.2223V22.5556H31.1112V21H26.4445Z" fill="white"/>
<path d="M39.1168 21.2278C39.2626 21.0819 39.4605 21 39.6667 21H44.3334V22.5556H40.4445V24.1111H43.5556V25.6667H40.4445V27.2222H44.3334V28.7778H39.6667C39.2372 28.7778 38.889 28.4296 38.889 28V21.7778C38.889 21.5715 38.9709 21.3737 39.1168 21.2278Z" fill="white"/>
<path d="M45.889 21C45.6827 21 45.4849 21.0819 45.339 21.2278C45.1931 21.3737 45.1112 21.5715 45.1112 21.7778V28C45.1112 28.4296 45.4594 28.7778 45.889 28.7778H50.5556V27.2222H46.6667V25.6667H49.7779V24.1111H46.6667V22.5556H50.5556V21H45.889Z" fill="white"/>
<path fill-rule="evenodd" clip-rule="evenodd" d="M32.1168 21.2278C32.2626 21.0819 32.4605 21 32.6667 21H35.389C36.8924 21 38.1112 22.2188 38.1112 23.7222C38.1112 24.6588 37.6382 25.485 36.918 25.9748C37.6535 26.6823 38.1112 27.6766 38.1112 28.7778H36.5556C36.5556 27.4891 35.511 26.4444 34.2223 26.4444H33.4445V28.7778H31.889V21.7778C31.889 21.5715 31.9709 21.3737 32.1168 21.2278ZM33.4445 24.8889H35.389C36.0333 24.8889 36.5556 24.3666 36.5556 23.7222C36.5556 23.0779 36.0333 22.5556 35.389 22.5556H33.4445V24.8889Z" fill="white"/>
<defs>
<linearGradient id="paint0_linear_6336_18421" x1="21.7778" y1="5.09757" x2="10.6296" y2="35.0418" gradientUnits="userSpaceOnUse">
<stop stop-color="#941B80"/>
<stop offset="1" stop-color="#A6358A"/>
</linearGradient>
<linearGradient id="paint1_linear_6336_18421" x1="12.4444" y1="10.5756" x2="3.31961" y2="35.4459" gradientUnits="userSpaceOnUse">
<stop stop-color="#C0C2C5"/>
<stop offset="1" stop-color="#81858B"/>
</linearGradient>
</defs>
</svg>
