<svg width="36" height="37" viewBox="0 0 36 37" fill="none" xmlns="http://www.w3.org/2000/svg">
<path d="M32.2786 18.0137H3.81934C3.26705 18.0137 2.81934 18.4614 2.81934 19.0137V32.6837C2.81934 33.2359 3.26705 33.6837 3.81934 33.6837H32.2787C32.8309 33.6837 33.2787 33.2359 33.2787 32.6837V19.0137C33.2787 18.4614 32.8309 18.0137 32.2786 18.0137Z" fill="url(#paint0_linear)"/>
<path d="M27.2783 5.06445V9.67327" stroke="#C8C8C8" stroke-width="0.5" stroke-miterlimit="10"/>
<path d="M22.6631 5.06445V9.67327" stroke="#C8C8C8" stroke-width="0.5" stroke-miterlimit="10"/>
<path d="M18.0479 5.06445V9.67327" stroke="#C8C8C8" stroke-width="0.5" stroke-miterlimit="10"/>
<path d="M13.4336 5.06445V9.67327" stroke="#C8C8C8" stroke-width="0.5" stroke-miterlimit="10"/>
<path d="M8.81836 5.06445V9.67327" stroke="#C8C8C8" stroke-width="0.5" stroke-miterlimit="10"/>
<path d="M28.6626 15.7082C28.6626 16.4729 28.0427 17.0928 27.2781 17.0928C26.5134 17.0928 25.8936 16.4729 25.8936 15.7082V10.1814C25.8936 9.41674 26.5134 8.79688 27.2781 8.79688C28.0427 8.79688 28.6626 9.41674 28.6626 10.1814V15.7082Z" fill="url(#paint1_linear)"/>
<path d="M24.0473 15.7082C24.0473 16.4729 23.4275 17.0928 22.6628 17.0928C21.8982 17.0928 21.2783 16.4729 21.2783 15.7082V10.1814C21.2783 9.41674 21.8982 8.79688 22.6628 8.79688C23.4275 8.79688 24.0473 9.41674 24.0473 10.1814V15.7082Z" fill="url(#paint2_linear)"/>
<path d="M19.4331 15.7082C19.4331 16.4729 18.8132 17.0928 18.0486 17.0928C17.2839 17.0928 16.6641 16.4729 16.6641 15.7082V10.1814C16.6641 9.41674 17.2839 8.79688 18.0486 8.79688C18.8132 8.79688 19.4331 9.41674 19.4331 10.1814V15.7082Z" fill="url(#paint3_linear)"/>
<path d="M14.8179 15.7082C14.8179 16.4729 14.198 17.0928 13.4333 17.0928C12.6687 17.0928 12.0488 16.4729 12.0488 15.7082V10.1814C12.0488 9.41674 12.6687 8.79688 13.4333 8.79688C14.198 8.79688 14.8179 9.41674 14.8179 10.1814V15.7082Z" fill="url(#paint4_linear)"/>
<path d="M10.2026 15.7082C10.2026 16.4729 9.58275 17.0928 8.81811 17.0928C8.05346 17.0928 7.43359 16.4729 7.43359 15.7082V10.1814C7.43359 9.41674 8.05346 8.79688 8.81811 8.79688C9.58275 8.79688 10.2026 9.41674 10.2026 10.1814V15.7082Z" fill="url(#paint5_linear)"/>
<path d="M25.9912 4.63694L27.0031 1.60218C27.0826 1.3646 27.3613 1.36124 27.4454 1.59546L28.5471 4.68737C28.939 5.78562 28.2862 6.97128 27.3005 6.95223C26.3157 6.93318 25.6302 5.72062 25.9912 4.63694Z" fill="url(#paint6_linear)"/>
<path d="M21.376 4.63694L22.3879 1.60218C22.4673 1.3646 22.746 1.36124 22.8302 1.59546L23.9319 4.68737C24.3237 5.78562 23.671 6.97128 22.6853 6.95223C21.7005 6.93318 21.015 5.72062 21.376 4.63694Z" fill="url(#paint7_linear)"/>
<path d="M16.7617 4.63694L17.7736 1.60218C17.8531 1.3646 18.1318 1.36124 18.216 1.59546L19.3176 4.68737C19.7095 5.78562 19.0567 6.97128 18.071 6.95223C17.0862 6.93318 16.4007 5.72062 16.7617 4.63694Z" fill="url(#paint8_linear)"/>
<path d="M12.1465 4.63694L13.1584 1.60218C13.2379 1.3646 13.5165 1.36124 13.6007 1.59546L14.7024 4.68737C15.0943 5.78562 14.4415 6.97128 13.4558 6.95223C12.471 6.93318 11.7855 5.72062 12.1465 4.63694Z" fill="url(#paint9_linear)"/>
<path d="M7.53123 4.63694L8.54313 1.60218C8.62262 1.3646 8.90131 1.36124 8.98548 1.59546L10.0872 4.68737C10.479 5.78562 9.82624 6.97128 8.84053 6.95223C7.85575 6.93318 7.17023 5.72062 7.53123 4.63694Z" fill="url(#paint10_linear)"/>
<path d="M32.994 25.9668H3.2207C2.48936 25.9668 1.89648 26.5597 1.89648 27.291C1.89648 28.0224 2.48936 28.6152 3.2207 28.6152H32.9939C33.7253 28.6152 34.3182 28.0224 34.3182 27.291C34.3182 26.5597 33.7253 25.9668 32.994 25.9668Z" fill="url(#paint11_linear)"/>
<path d="M32.994 31.9551H3.2207C2.48935 31.9551 1.89648 32.5479 1.89648 33.2793C1.89648 34.0106 2.48935 34.6035 3.2207 34.6035H32.994C33.7253 34.6035 34.3182 34.0106 34.3182 33.2793C34.3182 32.5479 33.7253 31.9551 32.994 31.9551Z" fill="url(#paint12_linear)"/>
<path d="M32.9198 23.1152L30.9713 20.8445C29.7619 19.4354 27.9 19.4203 26.6757 20.8087L25.4782 22.1689C24.239 23.5762 22.3487 23.5404 21.1438 22.088L20.2211 20.9762C19.0012 19.505 17.0811 19.4899 15.8463 20.9423L14.8445 22.12C13.6246 23.5536 11.7329 23.5592 10.5085 22.1294L9.43352 20.8746C8.21366 19.4523 6.33088 19.4504 5.10954 20.8708L3.17748 23.1209C2.66983 23.7098 1.84863 23.2564 1.84863 22.3872V17.3867C1.84863 16.2821 2.74406 15.3867 3.84863 15.3867H32.2486C33.3532 15.3867 34.2486 16.2821 34.2486 17.3867V22.3834C34.2486 23.2545 33.4259 23.706 32.9198 23.1152Z" fill="url(#paint13_linear)"/>
<defs>
<linearGradient id="paint0_linear" x1="2.00037" y1="33.5002" x2="32.0004" y2="19.0002" gradientUnits="userSpaceOnUse">
<stop stop-color="#EAEAEA"/>
<stop offset="1" stop-color="#F4F4F4"/>
</linearGradient>
<linearGradient id="paint1_linear" x1="27.2781" y1="8.79688" x2="27.2781" y2="17.0928" gradientUnits="userSpaceOnUse">
<stop stop-color="#4696E3"/>
<stop offset="1" stop-color="#2C79C8"/>
</linearGradient>
<linearGradient id="paint2_linear" x1="22.6628" y1="8.79688" x2="22.6628" y2="17.0928" gradientUnits="userSpaceOnUse">
<stop stop-color="#4696E3"/>
<stop offset="1" stop-color="#2C79C8"/>
</linearGradient>
<linearGradient id="paint3_linear" x1="18.0486" y1="8.79688" x2="18.0486" y2="17.0928" gradientUnits="userSpaceOnUse">
<stop stop-color="#4696E3"/>
<stop offset="1" stop-color="#2C79C8"/>
</linearGradient>
<linearGradient id="paint4_linear" x1="13.4333" y1="8.79688" x2="13.4333" y2="17.0928" gradientUnits="userSpaceOnUse">
<stop stop-color="#4696E3"/>
<stop offset="1" stop-color="#2C79C8"/>
</linearGradient>
<linearGradient id="paint5_linear" x1="8.81811" y1="8.79688" x2="8.81811" y2="17.0928" gradientUnits="userSpaceOnUse">
<stop stop-color="#4696E3"/>
<stop offset="1" stop-color="#2C79C8"/>
</linearGradient>
<linearGradient id="paint6_linear" x1="27.2781" y1="1.42188" x2="27.2781" y2="6.95246" gradientUnits="userSpaceOnUse">
<stop stop-color="#E7E7E7"/>
<stop offset="1" stop-color="#D0D0D0"/>
</linearGradient>
<linearGradient id="paint7_linear" x1="22.6628" y1="1.42188" x2="22.6628" y2="6.95246" gradientUnits="userSpaceOnUse">
<stop stop-color="#E7E7E7"/>
<stop offset="1" stop-color="#D0D0D0"/>
</linearGradient>
<linearGradient id="paint8_linear" x1="18.0486" y1="1.42188" x2="18.0486" y2="6.95246" gradientUnits="userSpaceOnUse">
<stop stop-color="#E7E7E7"/>
<stop offset="1" stop-color="#D0D0D0"/>
</linearGradient>
<linearGradient id="paint9_linear" x1="13.4333" y1="1.42188" x2="13.4333" y2="6.95246" gradientUnits="userSpaceOnUse">
<stop stop-color="#E7E7E7"/>
<stop offset="1" stop-color="#D0D0D0"/>
</linearGradient>
<linearGradient id="paint10_linear" x1="8.81811" y1="1.42188" x2="8.81811" y2="6.95246" gradientUnits="userSpaceOnUse">
<stop stop-color="#E7E7E7"/>
<stop offset="1" stop-color="#D0D0D0"/>
</linearGradient>
<linearGradient id="paint11_linear" x1="18.1073" y1="25.9668" x2="18.1073" y2="28.6152" gradientUnits="userSpaceOnUse">
<stop stop-color="#E7E7E7"/>
<stop offset="1" stop-color="#D0D0D0"/>
</linearGradient>
<linearGradient id="paint12_linear" x1="18.1073" y1="31.9551" x2="18.1073" y2="34.6035" gradientUnits="userSpaceOnUse">
<stop stop-color="#E7E7E7"/>
<stop offset="1" stop-color="#D0D0D0"/>
</linearGradient>
<linearGradient id="paint13_linear" x1="18.0486" y1="15.3867" x2="18.0486" y2="23.3867" gradientUnits="userSpaceOnUse">
<stop stop-color="#E7E7E7"/>
<stop offset="1" stop-color="#D0D0D0"/>
</linearGradient>
</defs>
</svg>
