<svg width="36" height="37" viewBox="0 0 36 37" fill="none" xmlns="http://www.w3.org/2000/svg">
<g clip-path="url(#clip0)">
<path d="M33.7217 15.4454C33.6493 15.4454 33.5813 15.4104 33.5392 15.3515L27.1803 6.44866C26.4554 5.43374 24.9885 5.32262 24.119 6.21678L15.797 14.7745C15.3835 15.1997 14.8028 15.4194 14.2114 15.3744L4.15172 14.6091C2.99072 14.5208 2 15.439 2 16.6034V30.557C2 31.6615 2.89543 32.557 4 32.557H31.9461C33.0507 32.557 33.9461 31.6615 33.9461 30.557V15.6698C33.9461 15.5459 33.8456 15.4454 33.7217 15.4454Z" fill="url(#paint0_linear)"/>
<path d="M25.5307 16.9121C26.9845 16.9121 28.163 15.7417 28.163 14.2979C28.163 12.854 26.9845 11.6836 25.5307 11.6836C24.0769 11.6836 22.8984 12.854 22.8984 14.2979C22.8984 15.7417 24.0769 16.9121 25.5307 16.9121Z" fill="white"/>
<path d="M28.372 31.1092C28.372 31.3779 28.1542 31.5957 27.8855 31.5957H23.1154C22.8467 31.5957 22.6289 31.3779 22.6289 31.1092V23.2896C22.6289 21.8023 23.9151 20.5957 25.5005 20.5957C27.0858 20.5957 28.372 21.8023 28.372 23.2896V31.1092Z" fill="white"/>
<path d="M8.91515 24.9695C8.91515 25.5068 8.47954 25.9424 7.94218 25.9424H6.4925C5.95515 25.9424 5.51953 25.5068 5.51953 24.9695V22.0436C5.51953 21.112 6.2793 20.3574 7.21734 20.3574C8.15538 20.3574 8.91515 21.112 8.91515 22.0436V24.9695Z" fill="white"/>
<path d="M15.0685 24.9695C15.0685 25.5068 14.6329 25.9424 14.0955 25.9424H12.6458C12.1085 25.9424 11.6729 25.5068 11.6729 24.9695V22.0436C11.6729 21.112 12.4326 20.3574 13.3707 20.3574C14.3087 20.3574 15.0685 21.112 15.0685 22.0436V24.9695Z" fill="white"/>
<path d="M25.5312 11.6836V16.9121" stroke="#D2D2D2" stroke-width="0.486486" stroke-miterlimit="10"/>
<path d="M28.163 14.2969H22.8984" stroke="#D2D2D2" stroke-width="0.486486" stroke-miterlimit="10"/>
<path d="M17.2915 15.3116C17.1069 15.5433 16.8268 15.6782 16.5306 15.6782H1.73313C0.934783 15.6782 0.4762 14.7698 0.950305 14.1274L6.83919 6.14907C7.02262 5.90056 7.31315 5.75391 7.62202 5.75391H22.8888C23.7038 5.75391 24.1577 6.69591 23.6497 7.33326L17.2915 15.3116Z" fill="url(#paint1_linear)"/>
<path d="M27.1106 3.80368C26.3404 2.64831 24.6426 2.64832 23.8724 3.80369L16.3334 15.1122C15.7563 15.9778 16.3768 17.1372 17.4171 17.1372C17.8616 17.1372 18.2755 16.9104 18.5148 16.5358L24.6488 6.93135C25.042 6.31572 25.9411 6.31569 26.3343 6.93129L32.4696 16.5361C32.7088 16.9105 33.1225 17.1372 33.5668 17.1372C34.6067 17.1372 35.227 15.9782 34.6501 15.113L27.1106 3.80368Z" fill="url(#paint2_linear)"/>
</g>
<defs>
<linearGradient id="paint0_linear" x1="17.973" y1="4.5" x2="17.973" y2="32.557" gradientUnits="userSpaceOnUse">
<stop stop-color="#E7E7E7"/>
<stop offset="1" stop-color="#D0D0D0"/>
</linearGradient>
<linearGradient id="paint1_linear" x1="11.7732" y1="5.75391" x2="11.7732" y2="15.6782" gradientUnits="userSpaceOnUse">
<stop stop-color="#4696E3"/>
<stop offset="1" stop-color="#2C79C8"/>
</linearGradient>
<linearGradient id="paint2_linear" x1="25.4915" y1="1.375" x2="25.4915" y2="17.1372" gradientUnits="userSpaceOnUse">
<stop stop-color="#4696E3"/>
<stop offset="1" stop-color="#2C79C8"/>
</linearGradient>
<clipPath id="clip0">
<rect y="0.5" width="36" height="36" fill="white"/>
</clipPath>
</defs>
</svg>
